<svg xmlns="http://www.w3.org/2000/svg" xmlns:xlink="http://www.w3.org/1999/xlink" version="1.1" class="marks" width="578" height="407" viewBox="0 0 578 407"><rect width="578" height="407" fill="white"/><g fill="none" stroke-miterlimit="10" transform="translate(40,66)"><g class="mark-group role-frame root" role="graphics-object" aria-roledescription="group mark container"><g transform="translate(0,0)"><path class="background" aria-hidden="true" d="M0.5,0.5h400v300h-400Z" stroke="#ddd"/><g><g class="mark-group role-axis" aria-hidden="true"><g transform="translate(0.5,300.5)"><path class="background" aria-hidden="true" d="M0,0h0v0h0Z" pointer-events="none"/><g><g class="mark-rule role-axis-grid" pointer-events="none"><line transform="translate(0,-300)" x2="0" y2="300" stroke="#ddd" stroke-width="1" opacity="1"/><line transform="translate(44,-300)" x2="0" y2="300" stroke="#ddd" stroke-width="1" opacity="1"/><line transform="translate(89,-300)" x2="0" y2="300" stroke="#ddd" stroke-width="1" opacity="1"/><line transform="translate(133,-300)" x2="0" y2="300" stroke="#ddd" stroke-width="1" opacity="1"/><line transform="translate(178,-300)" x2="0" y2="300" stroke="#ddd" stroke-width="1" opacity="1"/><line transform="translate(222,-300)" x2="0" y2="300" stroke="#ddd" stroke-width="1" opacity="1"/><line transform="translate(267,-300)" x2="0" y2="300" stroke="#ddd" stroke-width="1" opacity="1"/><line transform="translate(311,-300)" x2="0" y2="300" stroke="#ddd" stroke-width="1" opacity="1"/><line transform="translate(356,-300)" x2="0" y2="300" stroke="#ddd" stroke-width="1" opacity="1"/><line transform="translate(400,-300)" x2="0" y2="300" stroke="#ddd" stroke-width="1" opacity="1"/></g></g><path class="foreground" aria-hidden="true" d="" pointer-events="none" display="none"/></g></g><g class="mark-group role-axis" aria-hidden="true"><g transform="translate(0.5,0.5)"><path class="background" aria-hidden="true" d="M0,0h0v0h0Z" pointer-events="none"/><g><g class="mark-rule role-axis-grid" pointer-events="none"><line transform="translate(0,300)" x2="400" y2="0" stroke="#ddd" stroke-width="1" opacity="1"/><line transform="translate(0,267)" x2="400" y2="0" stroke="#ddd" stroke-width="1" opacity="1"/><line transform="translate(0,233)" x2="400" y2="0" stroke="#ddd" stroke-width="1" opacity="1"/><line transform="translate(0,200)" x2="400" y2="0" stroke="#ddd" stroke-width="1" opacity="1"/><line transform="translate(0,167)" x2="400" y2="0" stroke="#ddd" stroke-width="1" opacity="1"/><line transform="translate(0,133)" x2="400" y2="0" stroke="#ddd" stroke-width="1" opacity="1"/><line transform="translate(0,100)" x2="400" y2="0" stroke="#ddd" stroke-width="1" opacity="1"/><line transform="translate(0,67)" x2="400" y2="0" stroke="#ddd" stroke-width="1" opacity="1"/><line transform="translate(0,33)" x2="400" y2="0" stroke="#ddd" stroke-width="1" opacity="1"/><line transform="translate(0,0)" x2="400" y2="0" stroke="#ddd" stroke-width="1" opacity="1"/></g></g><path class="foreground" aria-hidden="true" d="" pointer-events="none" display="none"/></g></g><g class="mark-group role-axis" role="graphics-symbol" aria-roledescription="axis" aria-label="X-axis titled 'Spend' for a linear scale with values from 0 to 9,000,000"><g transform="translate(0.5,300.5)"><path class="background" aria-hidden="true" d="M0,0h0v0h0Z" pointer-events="none"/><g><g class="mark-text role-axis-label" pointer-events="none"><text text-anchor="start" transform="translate(0,19)" font-family="Roboto" font-size="12px" fill="#5F6368" opacity="1">0</text><text text-anchor="middle" transform="translate(44.44444444444444,19)" font-family="Roboto" font-size="12px" fill="#5F6368" opacity="1">1M</text><text text-anchor="middle" transform="translate(88.88888888888889,19)" font-family="Roboto" font-size="12px" fill="#5F6368" opacity="1">2M</text><text text-anchor="middle" transform="translate(133.33333333333331,19)" font-family="Roboto" font-size="12px" fill="#5F6368" opacity="1">3M</text><text text-anchor="middle" transform="translate(177.77777777777777,19)" font-family="Roboto" font-size="12px" fill="#5F6368" opacity="1">4M</text><text text-anchor="middle" transform="translate(222.22222222222223,19)" font-family="Roboto" font-size="12px" fill="#5F6368" opacity="1">5M</text><text text-anchor="middle" transform="translate(266.66666666666663,19)" font-family="Roboto" font-size="12px" fill="#5F6368" opacity="1">6M</text><text text-anchor="middle" transform="translate(311.11111111111114,19)" font-family="Roboto" font-size="12px" fill="#5F6368" opacity="1">7M</text><text text-anchor="middle" transform="translate(355.55555555555554,19)" font-family="Roboto" font-size="12px" fill="#5F6368" opacity="1">8M</text><text text-anchor="end" transform="translate(400,19)" font-family="Roboto" font-size="12px" fill="#5F6368" opacity="1">9M</text></g><g class="mark-rule role-axis-domain" pointer-events="none"><line transform="translate(0,0)" x2="400" y2="0" stroke="#DADCE0" stroke-width="1" opacity="1"/></g><g class="mark-text role-axis-title" pointer-events="none"><text text-anchor="middle" transform="translate(200,34)" font-family="Roboto" font-size="12px" font-weight="normal" fill="#5F6368" opacity="1">Spend</text></g></g><path class="foreground" aria-hidden="true" d="" pointer-events="none" display="none"/></g></g><g class="mark-group role-axis" role="graphics-symbol" aria-roledescription="axis" aria-label="Y-axis titled 'Incremental outcome' for a linear scale with values from 0 to 18,000,000"><g transform="translate(0.5,0.5)"><path class="background" aria-hidden="true" d="M0,0h0v0h0Z" pointer-events="none"/><g><g class="mark-rule role-axis-tick" pointer-events="none"><line transform="translate(0,300)" x2="-5" y2="0" stroke="#888" stroke-width="1" opacity="1"/><line transform="translate(0,267)" x2="-5" y2="0" stroke="#888" stroke-width="1" opacity="1"/><line transform="translate(0,233)" x2="-5" y2="0" stroke="#888" stroke-width="1" opacity="1"/><line transform="translate(0,200)" x2="-5" y2="0" stroke="#888" stroke-width="1" opacity="1"/><line transform="translate(0,167)" x2="-5" y2="0" stroke="#888" stroke-width="1" opacity="1"/><line transform="translate(0,133)" x2="-5" y2="0" stroke="#888" stroke-width="1" opacity="1"/><line transform="translate(0,100)" x2="-5" y2="0" stroke="#888" stroke-width="1" opacity="1"/><line transform="translate(0,67)" x2="-5" y2="0" stroke="#888" stroke-width="1" opacity="1"/><line transform="translate(0,33)" x2="-5" y2="0" stroke="#888" stroke-width="1" opacity="1"/><line transform="translate(0,0)" x2="-5" y2="0" stroke="#888" stroke-width="1" opacity="1"/></g><g class="mark-text role-axis-label" pointer-events="none"><text text-anchor="end" transform="translate(-7,304)" font-family="Roboto" font-size="12px" fill="#5F6368" opacity="1">0</text><text text-anchor="end" transform="translate(-7,270.66666666666663)" font-family="Roboto" font-size="12px" fill="#5F6368" opacity="1">2M</text><text text-anchor="end" transform="translate(-7,237.33333333333334)" font-family="Roboto" font-size="12px" fill="#5F6368" opacity="1">4M</text><text text-anchor="end" transform="translate(-7,204.00000000000003)" font-family="Roboto" font-size="12px" fill="#5F6368" opacity="1">6M</text><text text-anchor="end" transform="translate(-7,170.66666666666669)" font-family="Roboto" font-size="12px" fill="#5F6368" opacity="1">8M</text><text text-anchor="end" transform="translate(-7,137.33333333333331)" font-family="Roboto" font-size="12px" fill="#5F6368" opacity="1">10M</text><text text-anchor="end" transform="translate(-7,104.00000000000001)" font-family="Roboto" font-size="12px" fill="#5F6368" opacity="1">12M</text><text text-anchor="end" transform="translate(-7,70.66666666666666)" font-family="Roboto" font-size="12px" fill="#5F6368" opacity="1">14M</text><text text-anchor="end" transform="translate(-7,37.33333333333335)" font-family="Roboto" font-size="12px" fill="#5F6368" opacity="1">16M</text><text text-anchor="end" transform="translate(-7,4)" font-family="Roboto" font-size="12px" fill="#5F6368" opacity="1">18M</text></g><g class="mark-rule role-axis-domain" pointer-events="none"><line transform="translate(0,300)" x2="0" y2="-300" stroke="#888" stroke-width="1" opacity="1"/></g><g class="mark-text role-axis-title" pointer-events="none"><text text-anchor="start" transform="translate(-34.953125,-23)" font-family="Roboto" font-size="12px" font-weight="normal" fill="#5F6368" opacity="1">Incremental outcome</text></g></g><path class="foreground" aria-hidden="true" d="" pointer-events="none" display="none"/></g></g><g class="mark-group role-scope layer_0_pathgroup" role="graphics-object" aria-roledescription="group mark container"><g transform="translate(0,0)"><path class="background" aria-hidden="true" d="M0,0h400v300h-400Z"/><g><g class="mark-line role-mark layer_0_marks" role="graphics-object" aria-roledescription="line mark container"><path aria-label="Spend: 0; Incremental outcome: 0; channel: direct_lessbulk_spend; spend_level: Below current spend" role="graphics-symbol" aria-roledescription="line mark" d="M0,300L0.346,299.743L0.693,299.51L1.039,299.293L1.386,299.088L1.732,298.894L2.079,298.708L2.425,298.53L2.771,298.358L3.118,298.193L3.464,298.033L3.811,297.878L4.157,297.727L4.504,297.581L4.85,297.439L5.196,297.3L5.543,297.164L5.889,297.032L6.236,296.903L6.582,296.777L6.929,296.653L7.275,296.532L7.621,296.413L7.968,296.296L8.314,296.182L8.661,296.07L9.007,295.959L9.354,295.851L9.7,295.744L10.047,295.64L10.393,295.537L10.739,295.435L11.086,295.335L11.432,295.237L11.779,295.14L12.125,295.045L12.472,294.951L12.818,294.858L13.164,294.766L13.511,294.676L13.857,294.587L14.204,294.499L14.55,294.412L14.897,294.327L15.243,294.242L15.589,294.158L15.936,294.076L16.282,293.994L16.629,293.914L16.975,293.834L17.322,293.755L17.668,293.677L18.014,293.6L18.361,293.524L18.707,293.449L19.054,293.374L19.4,293.301L19.747,293.228L20.093,293.155L20.439,293.084L20.786,293.013L21.132,292.943L21.479,292.873L21.825,292.805L22.172,292.737L22.518,292.669L22.864,292.602L23.211,292.536L23.557,292.471L23.904,292.406L24.25,292.341L24.597,292.278L24.943,292.214L25.29,292.152L25.636,292.09L25.982,292.028L26.329,291.967L26.675,291.906L27.022,291.846L27.368,291.787L27.715,291.728L28.061,291.669L28.407,291.611L28.754,291.553L29.1,291.496L29.447,291.439L29.793,291.383L30.14,291.327L30.486,291.271L30.832,291.216L31.179,291.162L31.525,291.107L31.872,291.054L32.218,291L32.565,290.947L32.911,290.895L33.257,290.842L33.604,290.79L33.95,290.739L34.297,290.688" stroke="#4c78a8" stroke-width="2" stroke-dasharray="1,0"/></g></g><path class="foreground" aria-hidden="true" d="" display="none"/></g><g transform="translate(0,0)"><path class="background" aria-hidden="true" d="M0,0h400v300h-400Z"/><g><g class="mark-line role-mark layer_0_marks" role="graphics-object" aria-roledescription="line mark container"><path aria-label="Spend: 779471; Incremental outcome: 561795.8125; channel: direct_lessbulk_spend; spend_level: Above current spend" role="graphics-symbol" aria-roledescription="line mark" d="M34.643,290.637L34.99,290.586L35.336,290.536L35.682,290.486L36.029,290.437L36.375,290.388L36.722,290.339L37.068,290.29L37.415,290.242L37.761,290.194L38.107,290.147L38.454,290.1L38.8,290.053L39.147,290.006L39.493,289.96L39.84,289.914L40.186,289.868L40.532,289.823L40.879,289.777L41.225,289.732L41.572,289.688L41.918,289.643L42.265,289.599L42.611,289.556L42.958,289.512L43.304,289.469L43.65,289.426L43.997,289.383L44.343,289.34L44.69,289.298L45.036,289.256L45.383,289.214L45.729,289.172L46.075,289.131L46.422,289.09L46.768,289.049L47.115,289.008L47.461,288.968L47.808,288.927L48.154,288.887L48.5,288.848L48.847,288.808L49.193,288.769L49.54,288.73L49.886,288.691L50.233,288.652L50.579,288.613L50.925,288.575L51.272,288.537L51.618,288.499L51.965,288.461L52.311,288.423L52.658,288.386L53.004,288.349L53.35,288.312L53.697,288.275L54.043,288.238L54.39,288.202L54.736,288.166L55.083,288.13L55.429,288.094L55.775,288.058L56.122,288.022L56.468,287.987L56.815,287.952L57.161,287.917L57.508,287.882L57.854,287.847L58.201,287.813L58.547,287.778L58.893,287.744L59.24,287.71L59.586,287.676L59.933,287.642L60.279,287.609L60.626,287.575L60.972,287.542L61.318,287.509L61.665,287.476L62.011,287.443L62.358,287.41L62.704,287.378L63.051,287.345L63.397,287.313L63.743,287.281L64.09,287.249L64.436,287.217L64.783,287.185L65.129,287.154L65.476,287.122L65.822,287.091L66.168,287.06L66.515,287.029L66.861,286.998L67.208,286.967L67.554,286.936L67.901,286.906L68.247,286.876L68.593,286.845L68.94,286.815L69.286,286.785L69.633,286.755L69.979,286.725L70.326,286.696L70.672,286.666L71.018,286.637L71.365,286.608L71.711,286.578L72.058,286.549L72.404,286.52L72.751,286.492L73.097,286.463L73.443,286.434L73.79,286.406L74.136,286.377L74.483,286.349L74.829,286.321L75.176,286.293L75.522,286.265L75.869,286.237" stroke="#4c78a8" stroke-width="2" stroke-dasharray="4,2"/></g></g><path class="foreground" aria-hidden="true" d="" display="none"/></g><g transform="translate(0,0)"><path class="background" aria-hidden="true" d="M0,0h400v300h-400Z"/><g><g class="mark-line role-mark layer_0_marks" role="graphics-object" aria-roledescription="line mark container"><path aria-label="Spend: 0; Incremental outcome: 0; channel: event_spend; spend_level: Below current spend" role="graphics-symbol" aria-roledescription="line mark" d="M0,300L0.662,298.82L1.325,297.937L1.987,297.208L2.649,296.575L3.312,296.009L3.974,295.495L4.636,295.02L5.299,294.578L5.961,294.163L6.623,293.77L7.286,293.397L7.948,293.041L8.61,292.7L9.273,292.373L9.935,292.058L10.597,291.753L11.26,291.459L11.922,291.174L12.584,290.898L13.247,290.629L13.909,290.368L14.571,290.113L15.234,289.865L15.896,289.622L16.558,289.385L17.221,289.154L17.883,288.927L18.545,288.706L19.208,288.488L19.87,288.275L20.532,288.066L21.195,287.861L21.857,287.659L22.519,287.461L23.182,287.267L23.844,287.075L24.506,286.887L25.169,286.702L25.831,286.519L26.493,286.34L27.156,286.163L27.818,285.989L28.48,285.817L29.143,285.647L29.805,285.48L30.467,285.315L31.13,285.153L31.792,284.992L32.454,284.834L33.117,284.677L33.779,284.523L34.441,284.37L35.104,284.219L35.766,284.07L36.428,283.923L37.091,283.777L37.753,283.633L38.415,283.491L39.078,283.35L39.74,283.21L40.402,283.072L41.065,282.936L41.727,282.801L42.389,282.667L43.052,282.535L43.714,282.404L44.376,282.274L45.039,282.146L45.701,282.019L46.363,281.893L47.026,281.768L47.688,281.645L48.35,281.522L49.013,281.401L49.675,281.28L50.337,281.161L51,281.043L51.662,280.926L52.324,280.81L52.987,280.695L53.649,280.581L54.311,280.467L54.974,280.355L55.636,280.244L56.298,280.133L56.961,280.024L57.623,279.915L58.285,279.807L58.948,279.7L59.61,279.594L60.272,279.489L60.935,279.384L61.597,279.28L62.259,279.177L62.922,279.075L63.584,278.974L64.246,278.873L64.909,278.773L65.571,278.674" stroke="#f58518" stroke-width="2" stroke-dasharray="1,0"/></g></g><path class="foreground" aria-hidden="true" d="" display="none"/></g><g transform="translate(0,0)"><path class="background" aria-hidden="true" d="M0,0h400v300h-400Z"/><g><g class="mark-line role-mark layer_0_marks" role="graphics-object" aria-roledescription="line mark container"><path aria-label="Spend: 1490250; Incremental outcome: 1285488.5; channel: event_spend; spend_level: Above current spend" role="graphics-symbol" aria-roledescription="line mark" d="M66.233,278.575L66.896,278.477L67.558,278.38L68.22,278.284L68.883,278.188L69.545,278.093L70.207,277.998L70.87,277.904L71.532,277.811L72.194,277.718L72.857,277.626L73.519,277.535L74.181,277.444L74.844,277.353L75.506,277.264L76.168,277.175L76.831,277.086L77.493,276.998L78.155,276.911L78.818,276.824L79.48,276.737L80.142,276.651L80.805,276.566L81.467,276.481L82.129,276.397L82.792,276.313L83.454,276.23L84.116,276.147L84.779,276.065L85.441,275.983L86.103,275.901L86.766,275.82L87.428,275.74L88.09,275.66L88.753,275.58L89.415,275.501L90.077,275.422L90.74,275.344L91.402,275.266L92.064,275.189L92.727,275.112L93.389,275.035L94.051,274.959L94.714,274.883L95.376,274.808L96.038,274.733L96.701,274.659L97.363,274.584L98.025,274.511L98.688,274.437L99.35,274.364L100.012,274.291L100.675,274.219L101.337,274.147L101.999,274.076L102.662,274.004L103.324,273.934L103.986,273.863L104.649,273.793L105.311,273.723L105.973,273.654L106.636,273.584L107.298,273.516L107.96,273.447L108.623,273.379L109.285,273.311L109.947,273.244L110.61,273.177L111.272,273.11L111.934,273.043L112.597,272.977L113.259,272.911L113.921,272.845L114.584,272.78L115.246,272.715L115.908,272.65L116.571,272.586L117.233,272.522L117.895,272.458L118.558,272.394L119.22,272.331L119.882,272.268L120.545,272.205L121.207,272.142L121.869,272.08L122.532,272.018L123.194,271.957L123.856,271.895L124.519,271.834L125.181,271.773L125.843,271.713L126.506,271.652L127.168,271.592L127.83,271.532L128.493,271.473L129.155,271.413L129.817,271.354L130.48,271.295L131.142,271.237L131.804,271.178L132.467,271.12L133.129,271.062L133.791,271.004L134.454,270.947L135.116,270.89L135.778,270.833L136.441,270.776L137.103,270.719L137.765,270.663L138.428,270.607L139.09,270.551L139.752,270.495L140.415,270.44L141.077,270.385L141.739,270.33L142.402,270.275L143.064,270.22L143.726,270.166L144.389,270.112L145.051,270.058" stroke="#f58518" stroke-width="2" stroke-dasharray="4,2"/></g></g><path class="foreground" aria-hidden="true" d="" display="none"/></g><g transform="translate(0,0)"><path class="background" aria-hidden="true" d="M0,0h400v300h-400Z"/><g><g class="mark-line role-mark layer_0_marks" role="graphics-object" aria-roledescription="line mark container"><path aria-label="Spend: 0; Incremental outcome: 0; channel: fb_spend; spend_level: Below current spend" role="graphics-symbol" aria-roledescription="line mark" d="M0,300L0.302,299.642L0.604,299.3L0.906,298.972L1.208,298.657L1.51,298.353L1.812,298.06L2.114,297.776L2.416,297.501L2.718,297.235L3.02,296.976L3.322,296.724L3.624,296.479L3.926,296.241L4.228,296.009L4.53,295.782L4.832,295.561L5.134,295.345L5.436,295.134L5.738,294.927L6.04,294.725L6.342,294.528L6.644,294.334L6.946,294.145L7.248,293.959L7.55,293.777L7.852,293.598L8.154,293.423L8.456,293.251L8.758,293.082L9.06,292.916L9.362,292.753L9.664,292.593L9.966,292.436L10.268,292.281L10.57,292.129L10.872,291.979L11.174,291.832L11.476,291.687L11.778,291.545L12.08,291.404L12.382,291.266L12.684,291.13L12.986,290.996L13.288,290.864L13.59,290.734L13.892,290.606L14.194,290.479L14.496,290.355L14.798,290.232L15.1,290.111L15.402,289.991L15.704,289.873L16.006,289.757L16.308,289.642L16.61,289.529L16.912,289.417L17.214,289.307L17.516,289.198L17.818,289.09L18.12,288.984L18.422,288.879L18.724,288.776L19.026,288.673L19.328,288.572L19.63,288.472L19.932,288.374L20.234,288.276L20.537,288.18L20.839,288.085L21.141,287.991L21.443,287.897L21.745,287.805L22.047,287.714L22.349,287.624L22.651,287.536L22.953,287.448L23.255,287.36L23.557,287.274L23.859,287.189L24.161,287.105L24.463,287.022L24.765,286.939L25.067,286.857L25.369,286.777L25.671,286.697L25.973,286.618L26.275,286.539L26.577,286.462L26.879,286.385L27.181,286.309L27.483,286.234L27.785,286.159L28.087,286.085L28.389,286.012L28.691,285.94L28.993,285.868L29.295,285.797L29.597,285.727L29.899,285.657" stroke="#e45756" stroke-width="2" stroke-dasharray="1,0"/></g></g><path class="foreground" aria-hidden="true" d="" display="none"/></g><g transform="translate(0,0)"><path class="background" aria-hidden="true" d="M0,0h400v300h-400Z"/><g><g class="mark-line role-mark layer_0_marks" role="graphics-object" aria-roledescription="line mark container"><path aria-label="Spend: 679516.6875; Incremental outcome: 864696.9375; channel: fb_spend; spend_level: Above current spend" role="graphics-symbol" aria-roledescription="line mark" d="M30.201,285.588L30.503,285.52L30.805,285.452L31.107,285.385L31.409,285.319L31.711,285.253L32.013,285.187L32.315,285.123L32.617,285.059L32.919,284.995L33.221,284.932L33.523,284.87L33.825,284.808L34.127,284.746L34.429,284.686L34.731,284.625L35.033,284.565L35.335,284.506L35.637,284.447L35.939,284.389L36.241,284.331L36.543,284.274L36.845,284.217L37.147,284.161L37.449,284.105L37.751,284.049L38.053,283.994L38.355,283.94L38.657,283.885L38.959,283.832L39.261,283.778L39.563,283.725L39.865,283.673L40.167,283.621L40.469,283.569L40.771,283.518L41.073,283.467L41.375,283.417L41.677,283.367L41.979,283.317L42.281,283.268L42.583,283.219L42.885,283.17L43.187,283.122L43.489,283.074L43.791,283.027L44.093,282.98L44.395,282.933L44.697,282.886L44.999,282.84L45.301,282.794L45.603,282.749L45.905,282.704L46.207,282.659L46.509,282.614L46.811,282.57L47.113,282.526L47.415,282.483L47.717,282.44L48.019,282.397L48.321,282.354L48.623,282.312L48.925,282.27L49.227,282.228L49.529,282.186L49.831,282.145L50.133,282.104L50.435,282.064L50.737,282.023L51.039,281.983L51.341,281.943L51.643,281.904L51.945,281.864L52.247,281.825L52.549,281.786L52.851,281.748L53.153,281.71L53.455,281.672L53.757,281.634L54.059,281.596L54.361,281.559L54.663,281.522L54.965,281.485L55.267,281.448L55.569,281.412L55.871,281.376L56.173,281.34L56.475,281.304L56.777,281.269L57.079,281.233L57.381,281.198L57.683,281.164L57.985,281.129L58.287,281.095L58.589,281.06L58.891,281.026L59.193,280.993L59.495,280.959L59.797,280.926L60.099,280.892L60.401,280.859L60.703,280.827L61.006,280.794L61.308,280.762L61.61,280.729L61.912,280.697L62.214,280.666L62.516,280.634L62.818,280.603L63.12,280.571L63.422,280.54L63.724,280.509L64.026,280.478L64.328,280.448L64.63,280.417L64.932,280.387L65.234,280.357L65.536,280.327L65.838,280.298L66.14,280.268" stroke="#e45756" stroke-width="2" stroke-dasharray="4,2"/></g></g><path class="foreground" aria-hidden="true" d="" display="none"/></g><g transform="translate(0,0)"><path class="background" aria-hidden="true" d="M0,0h400v300h-400Z"/><g><g class="mark-line role-mark layer_0_marks" role="graphics-object" aria-roledescription="line mark container"><path aria-label="Spend: 0; Incremental outcome: 0; channel: gift_spend; spend_level: Below current spend" role="graphics-symbol" aria-roledescription="line mark" d="M0,300L0.04,299.945L0.079,299.896L0.119,299.85L0.159,299.806L0.199,299.765L0.238,299.726L0.278,299.689L0.318,299.654L0.358,299.62L0.397,299.587L0.437,299.555L0.477,299.524L0.517,299.495L0.556,299.466L0.596,299.438L0.636,299.411L0.676,299.385L0.715,299.36L0.755,299.335L0.795,299.311L0.835,299.287L0.874,299.264L0.914,299.241L0.954,299.219L0.993,299.198L1.033,299.177L1.073,299.156L1.113,299.136L1.152,299.116L1.192,299.097L1.232,299.078L1.272,299.059L1.311,299.041L1.351,299.023L1.391,299.005L1.431,298.988L1.47,298.971L1.51,298.954L1.55,298.938L1.59,298.921L1.629,298.906L1.669,298.89L1.709,298.874L1.749,298.859L1.788,298.844L1.828,298.83L1.868,298.815L1.907,298.801L1.947,298.787L1.987,298.773L2.027,298.759L2.066,298.746L2.106,298.733L2.146,298.72L2.186,298.707L2.225,298.694L2.265,298.681L2.305,298.669L2.345,298.657L2.384,298.644L2.424,298.633L2.464,298.621L2.504,298.609L2.543,298.598L2.583,298.586L2.623,298.575L2.663,298.564L2.702,298.553L2.742,298.542L2.782,298.531L2.821,298.521L2.861,298.51L2.901,298.5L2.941,298.49L2.98,298.48L3.02,298.47L3.06,298.46L3.1,298.45L3.139,298.44L3.179,298.431L3.219,298.421L3.259,298.412L3.298,298.402L3.338,298.393L3.378,298.384L3.418,298.375L3.457,298.366L3.497,298.357L3.537,298.348L3.577,298.34L3.616,298.331L3.656,298.323L3.696,298.314L3.735,298.306L3.775,298.298L3.815,298.289L3.855,298.281L3.894,298.273L3.934,298.265" stroke="#72b7b2" stroke-width="2" stroke-dasharray="1,0"/></g></g><path class="foreground" aria-hidden="true" d="" display="none"/></g><g transform="translate(0,0)"><path class="background" aria-hidden="true" d="M0,0h400v300h-400Z"/><g><g class="mark-line role-mark layer_0_marks" role="graphics-object" aria-roledescription="line mark container"><path aria-label="Spend: 89413.15625; Incremental outcome: 104557.171875; channel: gift_spend; spend_level: Above current spend" role="graphics-symbol" aria-roledescription="line mark" d="M3.974,298.257L4.014,298.25L4.053,298.242L4.093,298.234L4.133,298.226L4.173,298.219L4.212,298.211L4.252,298.204L4.292,298.197L4.332,298.189L4.371,298.182L4.411,298.175L4.451,298.168L4.491,298.161L4.53,298.154L4.57,298.147L4.61,298.14L4.649,298.133L4.689,298.126L4.729,298.12L4.769,298.113L4.808,298.106L4.848,298.1L4.888,298.093L4.928,298.087L4.967,298.08L5.007,298.074L5.047,298.068L5.087,298.061L5.126,298.055L5.166,298.049L5.206,298.043L5.246,298.037L5.285,298.031L5.325,298.025L5.365,298.019L5.405,298.013L5.444,298.007L5.484,298.001L5.524,297.995L5.563,297.99L5.603,297.984L5.643,297.978L5.683,297.973L5.722,297.967L5.762,297.962L5.802,297.956L5.842,297.951L5.881,297.945L5.921,297.94L5.961,297.934L6.001,297.929L6.04,297.924L6.08,297.919L6.12,297.913L6.16,297.908L6.199,297.903L6.239,297.898L6.279,297.893L6.319,297.888L6.358,297.883L6.398,297.878L6.438,297.873L6.477,297.868L6.517,297.863L6.557,297.858L6.597,297.853L6.636,297.849L6.676,297.844L6.716,297.839L6.756,297.834L6.795,297.83L6.835,297.825L6.875,297.82L6.915,297.816L6.954,297.811L6.994,297.807L7.034,297.802L7.074,297.798L7.113,297.793L7.153,297.789L7.193,297.784L7.233,297.78L7.272,297.776L7.312,297.771L7.352,297.767L7.391,297.763L7.431,297.758L7.471,297.754L7.511,297.75L7.55,297.746L7.59,297.742L7.63,297.738L7.67,297.733L7.709,297.729L7.749,297.725L7.789,297.721L7.829,297.717L7.868,297.713L7.908,297.709L7.948,297.705L7.988,297.701L8.027,297.697L8.067,297.693L8.107,297.69L8.147,297.686L8.186,297.682L8.226,297.678L8.266,297.674L8.305,297.671L8.345,297.667L8.385,297.663L8.425,297.659L8.464,297.656L8.504,297.652L8.544,297.648L8.584,297.645L8.623,297.641L8.663,297.637L8.703,297.634" stroke="#72b7b2" stroke-width="2" stroke-dasharray="4,2"/></g></g><path class="foreground" aria-hidden="true" d="" display="none"/></g><g transform="translate(0,0)"><path class="background" aria-hidden="true" d="M0,0h400v300h-400Z"/><g><g class="mark-line role-mark layer_0_marks" role="graphics-object" aria-roledescription="line mark container"><path aria-label="Spend: 0; Incremental outcome: 0; channel: googleAds_spend; spend_level: Below current spend" role="graphics-symbol" aria-roledescription="line mark" d="M0,300L0.697,299.212L1.395,298.437L2.092,297.674L2.789,296.922L3.487,296.182L4.184,295.452L4.881,294.733L5.579,294.024L6.276,293.324L6.973,292.635L7.671,291.955L8.368,291.284L9.065,290.622L9.763,289.968L10.46,289.323L11.157,288.686L11.855,288.058L12.552,287.437L13.249,286.823L13.947,286.218L14.644,285.619L15.341,285.028L16.038,284.444L16.736,283.866L17.433,283.296L18.13,282.732L18.828,282.174L19.525,281.623L20.222,281.078L20.92,280.538L21.617,280.005L22.314,279.478L23.012,278.956L23.709,278.44L24.406,277.929L25.104,277.424L25.801,276.924L26.498,276.43L27.196,275.94L27.893,275.455L28.59,274.976L29.288,274.501L29.985,274.031L30.682,273.565L31.38,273.104L32.077,272.648L32.774,272.196L33.472,271.748L34.169,271.305L34.866,270.866L35.564,270.431L36.261,270L36.958,269.573L37.656,269.15L38.353,268.731L39.05,268.316L39.748,267.905L40.445,267.497L41.142,267.093L41.84,266.692L42.537,266.296L43.234,265.902L43.932,265.512L44.629,265.126L45.326,264.742L46.023,264.362L46.721,263.986L47.418,263.612L48.115,263.242L48.813,262.874L49.51,262.51L50.207,262.149L50.905,261.791L51.602,261.435L52.299,261.083L52.997,260.733L53.694,260.387L54.391,260.043L55.089,259.702L55.786,259.363L56.483,259.027L57.181,258.694L57.878,258.363L58.575,258.035L59.273,257.71L59.97,257.387L60.667,257.066L61.365,256.748L62.062,256.433L62.759,256.119L63.457,255.808L64.154,255.5L64.851,255.194L65.549,254.889L66.246,254.588L66.943,254.288L67.641,253.991L68.338,253.695L69.035,253.402" stroke="#54a24b" stroke-width="2" stroke-dasharray="1,0"/></g></g><path class="foreground" aria-hidden="true" d="" display="none"/></g><g transform="translate(0,0)"><path class="background" aria-hidden="true" d="M0,0h400v300h-400Z"/><g><g class="mark-line role-mark layer_0_marks" role="graphics-object" aria-roledescription="line mark container"><path aria-label="Spend: 1568982.5; Incremental outcome: 2813330.75; channel: googleAds_spend; spend_level: Above current spend" role="graphics-symbol" aria-roledescription="line mark" d="M69.733,253.111L70.43,252.822L71.127,252.535L71.825,252.25L72.522,251.968L73.219,251.687L73.917,251.408L74.614,251.131L75.311,250.856L76.008,250.583L76.706,250.311L77.403,250.042L78.1,249.774L78.798,249.509L79.495,249.245L80.192,248.982L80.89,248.722L81.587,248.463L82.284,248.206L82.982,247.951L83.679,247.697L84.376,247.445L85.074,247.195L85.771,246.946L86.468,246.699L87.166,246.454L87.863,246.21L88.56,245.967L89.258,245.726L89.955,245.487L90.652,245.249L91.35,245.013L92.047,244.778L92.744,244.545L93.442,244.313L94.139,244.083L94.836,243.854L95.534,243.626L96.231,243.4L96.928,243.175L97.626,242.951L98.323,242.729L99.02,242.509L99.718,242.289L100.415,242.071L101.112,241.854L101.81,241.639L102.507,241.424L103.204,241.211L103.902,240.999L104.599,240.789L105.296,240.58L105.993,240.372L106.691,240.165L107.388,239.959L108.085,239.755L108.783,239.551L109.48,239.349L110.177,239.148L110.875,238.948L111.572,238.749L112.269,238.552L112.967,238.355L113.664,238.16L114.361,237.966L115.059,237.772L115.756,237.58L116.453,237.389L117.151,237.199L117.848,237.01L118.545,236.822L119.243,236.635L119.94,236.449L120.637,236.264L121.335,236.08L122.032,235.897L122.729,235.716L123.427,235.534L124.124,235.354L124.821,235.175L125.519,234.997L126.216,234.82L126.913,234.644L127.611,234.469L128.308,234.294L129.005,234.121L129.703,233.948L130.4,233.776L131.097,233.606L131.795,233.436L132.492,233.267L133.189,233.098L133.886,232.931L134.584,232.765L135.281,232.599L135.978,232.434L136.676,232.27L137.373,232.107L138.07,231.945L138.768,231.783L139.465,231.622L140.162,231.463L140.86,231.303L141.557,231.145L142.254,230.988L142.952,230.831L143.649,230.675L144.346,230.519L145.044,230.365L145.741,230.211L146.438,230.058L147.136,229.906L147.833,229.754L148.53,229.603L149.228,229.453L149.925,229.304L150.622,229.155L151.32,229.007L152.017,228.86L152.714,228.714" stroke="#54a24b" stroke-width="2" stroke-dasharray="4,2"/></g></g><path class="foreground" aria-hidden="true" d="" display="none"/></g><g transform="translate(0,0)"><path class="background" aria-hidden="true" d="M0,0h400v300h-400Z"/><g><g class="mark-line role-mark layer_0_marks" role="graphics-object" aria-roledescription="line mark container"><path aria-label="Spend: 0; Incremental outcome: 0; channel: linkedin_spend; spend_level: Below current spend" role="graphics-symbol" aria-roledescription="line mark" d="M0,300L1.708,297.755L3.415,295.55L5.123,293.383L6.83,291.252L8.538,289.156L10.245,287.094L11.953,285.066L13.66,283.068L15.368,281.102L17.075,279.166L18.783,277.259L20.49,275.38L22.198,273.529L23.905,271.705L25.613,269.906L27.32,268.133L29.028,266.385L30.735,264.661L32.443,262.961L34.15,261.283L35.858,259.628L37.566,257.995L39.273,256.383L40.981,254.792L42.688,253.221L44.396,251.671L46.103,250.14L47.811,248.628L49.518,247.135L51.226,245.66L52.933,244.203L54.641,242.763L56.348,241.341L58.056,239.936L59.763,238.547L61.471,237.174L63.178,235.817L64.886,234.476L66.593,233.15L68.301,231.839L70.008,230.542L71.716,229.26L73.424,227.993L75.131,226.738L76.839,225.498L78.546,224.271L80.254,223.057L81.961,221.856L83.669,220.668L85.376,219.492L87.084,218.329L88.791,217.177L90.499,216.037L92.206,214.909L93.914,213.793L95.621,212.687L97.329,211.593L99.036,210.51L100.744,209.437L102.451,208.375L104.159,207.322L105.866,206.281L107.574,205.249L109.282,204.228L110.989,203.215L112.697,202.213L114.404,201.22L116.112,200.236L117.819,199.262L119.527,198.296L121.234,197.339L122.942,196.391L124.649,195.452L126.357,194.521L128.064,193.598L129.772,192.684L131.479,191.778L133.187,190.879L134.894,189.989L136.602,189.106L138.309,188.231L140.017,187.364L141.724,186.504L143.432,185.652L145.14,184.806L146.847,183.968L148.555,183.137L150.262,182.314L151.97,181.496L153.677,180.686L155.385,179.882L157.092,179.085L158.8,178.294L160.507,177.51L162.215,176.732L163.922,175.96L165.63,175.195L167.337,174.436L169.045,173.682" stroke="#eeca3b" stroke-width="2" stroke-dasharray="1,0"/></g></g><path class="foreground" aria-hidden="true" d="" display="none"/></g><g transform="translate(0,0)"><path class="background" aria-hidden="true" d="M0,0h400v300h-400Z"/><g><g class="mark-line role-mark layer_0_marks" role="graphics-object" aria-roledescription="line mark container"><path aria-label="Spend: 3841929; Incremental outcome: 7623887.5; channel: linkedin_spend; spend_level: Above current spend" role="graphics-symbol" aria-roledescription="line mark" d="M170.752,172.935L172.46,172.194L174.167,171.458L175.875,170.728L177.582,170.004L179.29,169.285L180.998,168.572L182.705,167.864L184.413,167.162L186.12,166.465L187.828,165.774L189.535,165.087L191.243,164.405L192.95,163.729L194.658,163.058L196.365,162.392L198.073,161.73L199.78,161.074L201.488,160.422L203.195,159.775L204.903,159.132L206.61,158.494L208.318,157.861L210.025,157.233L211.733,156.608L213.44,155.989L215.148,155.373L216.856,154.762L218.563,154.155L220.271,153.553L221.978,152.954L223.686,152.36L225.393,151.769L227.101,151.183L228.808,150.601L230.516,150.023L232.223,149.449L233.931,148.878L235.638,148.312L237.346,147.749L239.053,147.19L240.761,146.634L242.468,146.083L244.176,145.535L245.883,144.99L247.591,144.449L249.299,143.912L251.006,143.378L252.714,142.848L254.421,142.321L256.129,141.798L257.836,141.277L259.544,140.76L261.251,140.246L262.959,139.736L264.666,139.229L266.374,138.725L268.081,138.224L269.789,137.727L271.496,137.232L273.204,136.74L274.911,136.252L276.619,135.766L278.326,135.284L280.034,134.804L281.741,134.328L283.449,133.854L285.157,133.383L286.864,132.915L288.572,132.45L290.279,131.988L291.987,131.528L293.694,131.071L295.402,130.617L297.109,130.165L298.817,129.717L300.524,129.27L302.232,128.827L303.939,128.385L305.647,127.947L307.354,127.511L309.062,127.077L310.769,126.647L312.477,126.218L314.184,125.792L315.892,125.369L317.599,124.948L319.307,124.529L321.015,124.113L322.722,123.698L324.43,123.287L326.137,122.877L327.845,122.47L329.552,122.065L331.26,121.662L332.967,121.262L334.675,120.864L336.382,120.468L338.09,120.074L339.797,119.683L341.505,119.293L343.212,118.905L344.92,118.52L346.627,118.137L348.335,117.756L350.042,117.377L351.75,116.999L353.457,116.624L355.165,116.251L356.873,115.88L358.58,115.511L360.288,115.144L361.995,114.778L363.703,114.414L365.41,114.053L367.118,113.694L368.825,113.336L370.533,112.98L372.24,112.626L373.948,112.274" stroke="#eeca3b" stroke-width="2" stroke-dasharray="4,2"/></g></g><path class="foreground" aria-hidden="true" d="" display="none"/></g></g><g class="mark-symbol role-mark layer_1_marks" role="graphics-object" aria-roledescription="symbol mark container"><path aria-label="Spend: 779471; Incremental outcome: 561795.8125; channel: direct_lessbulk_spend; current_spend: Current spend; spend: 779471; mean: 561795.8125" role="graphics-symbol" aria-roledescription="point" transform="translate(34.64315555555555,290.6367364583333)" d="M4.472,0A4.472,4.472,0,1,1,-4.472,0A4.472,4.472,0,1,1,4.472,0" fill="#4c78a8" stroke-width="2" opacity="1"/><path aria-label="Spend: 1490250; Incremental outcome: 1285488.5; channel: event_spend; current_spend: Current spend; spend: 1490250; mean: 1285488.5" role="graphics-symbol" aria-roledescription="point" transform="translate(66.23333333333333,278.5751916666667)" d="M4.472,0A4.472,4.472,0,1,1,-4.472,0A4.472,4.472,0,1,1,4.472,0" fill="#f58518" stroke-width="2" opacity="1"/><path aria-label="Spend: 679516.6875; Incremental outcome: 864696.9375; channel: fb_spend; current_spend: Current spend; spend: 679516.6875; mean: 864696.9375" role="graphics-symbol" aria-roledescription="point" transform="translate(30.200741666666666,285.58838437500003)" d="M4.472,0A4.472,4.472,0,1,1,-4.472,0A4.472,4.472,0,1,1,4.472,0" fill="#e45756" stroke-width="2" opacity="1"/><path aria-label="Spend: 89413.15625; Incremental outcome: 104557.171875; channel: gift_spend; current_spend: Current spend; spend: 89413.15625; mean: 104557.171875" role="graphics-symbol" aria-roledescription="point" transform="translate(3.973918055555556,298.25738046875)" d="M4.472,0A4.472,4.472,0,1,1,-4.472,0A4.472,4.472,0,1,1,4.472,0" fill="#72b7b2" stroke-width="2" opacity="1"/><path aria-label="Spend: 1568982.5; Incremental outcome: 2813330.75; channel: googleAds_spend; current_spend: Current spend; spend: 1568982.5; mean: 2813330.75" role="graphics-symbol" aria-roledescription="point" transform="translate(69.73255555555555,253.11115416666667)" d="M4.472,0A4.472,4.472,0,1,1,-4.472,0A4.472,4.472,0,1,1,4.472,0" fill="#54a24b" stroke-width="2" opacity="1"/><path aria-label="Spend: 3841929; Incremental outcome: 7623887.5; channel: linkedin_spend; current_spend: Current spend; spend: 3841929; mean: 7623887.5" role="graphics-symbol" aria-roledescription="point" transform="translate(170.7524,172.93520833333335)" d="M4.472,0A4.472,4.472,0,1,1,-4.472,0A4.472,4.472,0,1,1,4.472,0" fill="#eeca3b" stroke-width="2" opacity="1"/></g><g class="mark-group role-scope layer_2_pathgroup" role="graphics-object" aria-roledescription="group mark container"><g transform="translate(0,0)"><path class="background" aria-hidden="true" d="M0,0h400v300h-400Z"/><g><g class="mark-area role-mark layer_2_marks" role="graphics-object" aria-roledescription="area mark container"><path aria-label="spend: 0; ci_lo: 0; ci_hi: 0; channel: direct_lessbulk_spend" role="graphics-symbol" aria-roledescription="area mark" d="M0,300L0.346,299.898L0.693,299.798L1.039,299.7L1.386,299.603L1.732,299.509L2.079,299.418L2.425,299.329L2.771,299.243L3.118,299.159L3.464,299.073L3.811,298.99L4.157,298.909L4.504,298.828L4.85,298.75L5.196,298.672L5.543,298.595L5.889,298.52L6.236,298.447L6.582,298.374L6.929,298.301L7.275,298.23L7.621,298.162L7.968,298.093L8.314,298.022L8.661,297.959L9.007,297.896L9.354,297.831L9.7,297.766L10.047,297.705L10.393,297.645L10.739,297.583L11.086,297.527L11.432,297.465L11.779,297.404L12.125,297.348L12.472,297.293L12.818,297.235L13.164,297.18L13.511,297.129L13.857,297.073L14.204,297.025L14.55,296.973L14.897,296.926L15.243,296.875L15.589,296.829L15.936,296.772L16.282,296.723L16.629,296.671L16.975,296.629L17.322,296.578L17.668,296.529L18.014,296.491L18.361,296.439L18.707,296.389L19.054,296.343L19.4,296.311L19.747,296.271L20.093,296.225L20.439,296.181L20.786,296.134L21.132,296.084L21.479,296.039L21.825,295.991L22.172,295.949L22.518,295.904L22.864,295.866L23.211,295.826L23.557,295.785L23.904,295.745L24.25,295.7L24.597,295.657L24.943,295.621L25.29,295.585L25.636,295.542L25.982,295.505L26.329,295.467L26.675,295.426L27.022,295.385L27.368,295.349L27.715,295.314L28.061,295.283L28.407,295.256L28.754,295.22L29.1,295.182L29.447,295.15L29.793,295.118L30.14,295.086L30.486,295.055L30.832,295.024L31.179,294.989L31.525,294.953L31.872,294.926L32.218,294.897L32.565,294.866L32.911,294.841L33.257,294.816L33.604,294.782L33.95,294.753L34.297,294.723L34.643,294.689L34.99,294.655L35.336,294.623L35.682,294.597L36.029,294.572L36.375,294.545L36.722,294.511L37.068,294.475L37.415,294.446L37.761,294.415L38.107,294.381L38.454,294.347L38.8,294.321L39.147,294.291L39.493,294.268L39.84,294.242L40.186,294.219L40.532,294.196L40.879,294.17L41.225,294.141L41.572,294.11L41.918,294.081L42.265,294.058L42.611,294.031L42.958,294.006L43.304,293.984L43.65,293.96L43.997,293.94L44.343,293.918L44.69,293.896L45.036,293.872L45.383,293.848L45.729,293.824L46.075,293.796L46.422,293.769L46.768,293.747L47.115,293.722L47.461,293.701L47.808,293.682L48.154,293.659L48.5,293.636L48.847,293.614L49.193,293.591L49.54,293.565L49.886,293.546L50.233,293.526L50.579,293.503L50.925,293.479L51.272,293.459L51.618,293.44L51.965,293.425L52.311,293.407L52.658,293.385L53.004,293.363L53.35,293.343L53.697,293.325L54.043,293.301L54.39,293.276L54.736,293.256L55.083,293.239L55.429,293.222L55.775,293.206L56.122,293.192L56.468,293.169L56.815,293.146L57.161,293.128L57.508,293.114L57.854,293.1L58.201,293.082L58.547,293.063L58.893,293.042L59.24,293.023L59.586,293L59.933,292.977L60.279,292.956L60.626,292.936L60.972,292.915L61.318,292.895L61.665,292.881L62.011,292.87L62.358,292.854L62.704,292.838L63.051,292.822L63.397,292.811L63.743,292.797L64.09,292.783L64.436,292.77L64.783,292.748L65.129,292.73L65.476,292.712L65.822,292.694L66.168,292.676L66.515,292.653L66.861,292.64L67.208,292.625L67.554,292.609L67.901,292.59L68.247,292.57L68.593,292.55L68.94,292.536L69.286,292.523L69.633,292.511L69.979,292.498L70.326,292.485L70.672,292.472L71.018,292.459L71.365,292.444L71.711,292.428L72.058,292.408L72.404,292.395L72.751,292.384L73.097,292.369L73.443,292.349L73.79,292.329L74.136,292.309L74.483,292.29L74.829,292.278L75.176,292.263L75.522,292.251L75.869,292.242L75.869,278.502L75.522,278.554L75.176,278.6L74.829,278.645L74.483,278.698L74.136,278.755L73.79,278.808L73.443,278.842L73.097,278.893L72.751,278.95L72.404,278.992L72.058,279.023L71.711,279.083L71.365,279.136L71.018,279.18L70.672,279.231L70.326,279.283L69.979,279.341L69.633,279.388L69.286,279.427L68.94,279.486L68.593,279.551L68.247,279.608L67.901,279.658L67.554,279.702L67.208,279.746L66.861,279.798L66.515,279.858L66.168,279.919L65.822,279.98L65.476,280.041L65.129,280.093L64.783,280.143L64.436,280.195L64.09,280.253L63.743,280.297L63.397,280.346L63.051,280.406L62.704,280.471L62.358,280.536L62.011,280.601L61.665,280.649L61.318,280.696L60.972,280.745L60.626,280.778L60.279,280.832L59.933,280.888L59.586,280.937L59.24,280.976L58.893,281.03L58.547,281.083L58.201,281.117L57.854,281.176L57.508,281.228L57.161,281.285L56.815,281.335L56.468,281.386L56.122,281.428L55.775,281.488L55.429,281.541L55.083,281.593L54.736,281.646L54.39,281.709L54.043,281.751L53.697,281.804L53.35,281.861L53.004,281.912L52.658,281.966L52.311,282.016L51.965,282.065L51.618,282.13L51.272,282.185L50.925,282.241L50.579,282.297L50.233,282.362L49.886,282.417L49.54,282.478L49.193,282.526L48.847,282.592L48.5,282.65L48.154,282.723L47.808,282.798L47.461,282.863L47.115,282.932L46.768,283.012L46.422,283.093L46.075,283.157L45.729,283.216L45.383,283.273L45.036,283.331L44.69,283.39L44.343,283.474L43.997,283.569L43.65,283.637L43.304,283.687L42.958,283.749L42.611,283.813L42.265,283.881L41.918,283.955L41.572,284.03L41.225,284.106L40.879,284.153L40.532,284.225L40.186,284.297L39.84,284.37L39.493,284.441L39.147,284.491L38.8,284.566L38.454,284.641L38.107,284.713L37.761,284.787L37.415,284.859L37.068,284.928L36.722,285.003L36.375,285.091L36.029,285.167L35.682,285.242L35.336,285.309L34.99,285.374L34.643,285.456L34.297,285.532L33.95,285.606L33.604,285.675L33.257,285.756L32.911,285.859L32.565,285.936L32.218,286.027L31.872,286.124L31.525,286.194L31.179,286.268L30.832,286.353L30.486,286.436L30.14,286.535L29.793,286.614L29.447,286.715L29.1,286.801L28.754,286.872L28.407,286.939L28.061,287.01L27.715,287.106L27.368,287.185L27.022,287.266L26.675,287.359L26.329,287.448L25.982,287.534L25.636,287.63L25.29,287.708L24.943,287.805L24.597,287.889L24.25,287.974L23.904,288.063L23.557,288.18L23.211,288.283L22.864,288.353L22.518,288.432L22.172,288.522L21.825,288.65L21.479,288.736L21.132,288.828L20.786,288.92L20.439,289.026L20.093,289.128L19.747,289.228L19.4,289.332L19.054,289.455L18.707,289.551L18.361,289.656L18.014,289.779L17.668,289.897L17.322,290.026L16.975,290.142L16.629,290.249L16.282,290.362L15.936,290.497L15.589,290.615L15.243,290.725L14.897,290.843L14.55,290.955L14.204,291.082L13.857,291.19L13.511,291.339L13.164,291.466L12.818,291.6L12.472,291.718L12.125,291.863L11.779,292.002L11.432,292.165L11.086,292.31L10.739,292.434L10.393,292.582L10.047,292.756L9.7,292.9L9.354,293.06L9.007,293.208L8.661,293.365L8.314,293.529L7.968,293.709L7.621,293.897L7.275,294.063L6.929,294.226L6.582,294.428L6.236,294.625L5.889,294.81L5.543,295.021L5.196,295.248L4.85,295.464L4.504,295.681L4.157,295.908L3.811,296.143L3.464,296.388L3.118,296.659L2.771,296.934L2.425,297.212L2.079,297.51L1.732,297.842L1.386,298.192L1.039,298.56L0.693,298.973L0.346,299.444L0,300Z" fill="#4c78a8" opacity="0.5"/></g></g><path class="foreground" aria-hidden="true" d="" display="none"/></g><g transform="translate(0,0)"><path class="background" aria-hidden="true" d="M0,0h400v300h-400Z"/><g><g class="mark-area role-mark layer_2_marks" role="graphics-object" aria-roledescription="area mark container"><path aria-label="spend: 0; ci_lo: 0; ci_hi: 0; channel: event_spend" role="graphics-symbol" aria-roledescription="area mark" d="M0,300L0.662,299.15L1.325,298.435L1.987,297.822L2.649,297.27L3.312,296.776L3.974,296.322L4.636,295.907L5.299,295.519L5.961,295.153L6.623,294.81L7.286,294.483L7.948,294.171L8.61,293.868L9.273,293.586L9.935,293.315L10.597,293.049L11.26,292.795L11.922,292.55L12.584,292.313L13.247,292.081L13.909,291.856L14.571,291.633L15.234,291.411L15.896,291.204L16.558,290.998L17.221,290.801L17.883,290.604L18.545,290.407L19.208,290.215L19.87,290.029L20.532,289.844L21.195,289.666L21.857,289.493L22.519,289.321L23.182,289.154L23.844,288.991L24.506,288.829L25.169,288.664L25.831,288.507L26.493,288.348L27.156,288.196L27.818,288.04L28.48,287.891L29.143,287.737L29.805,287.597L30.467,287.461L31.13,287.319L31.792,287.181L32.454,287.047L33.117,286.911L33.779,286.778L34.441,286.642L35.104,286.512L35.766,286.375L36.428,286.25L37.091,286.125L37.753,286L38.415,285.879L39.078,285.761L39.74,285.645L40.402,285.529L41.065,285.416L41.727,285.299L42.389,285.188L43.052,285.072L43.714,284.96L44.376,284.848L45.039,284.737L45.701,284.627L46.363,284.518L47.026,284.411L47.688,284.301L48.35,284.197L49.013,284.092L49.675,283.99L50.337,283.89L51,283.784L51.662,283.684L52.324,283.581L52.987,283.488L53.649,283.394L54.311,283.3L54.974,283.203L55.636,283.109L56.298,283.012L56.961,282.917L57.623,282.821L58.285,282.731L58.948,282.64L59.61,282.547L60.272,282.459L60.935,282.369L61.597,282.282L62.259,282.195L62.922,282.104L63.584,282.014L64.246,281.923L64.909,281.841L65.571,281.751L66.233,281.671L66.896,281.581L67.558,281.492L68.22,281.406L68.883,281.327L69.545,281.239L70.207,281.157L70.87,281.074L71.532,280.994L72.194,280.915L72.857,280.839L73.519,280.762L74.181,280.684L74.844,280.614L75.506,280.537L76.168,280.464L76.831,280.39L77.493,280.317L78.155,280.238L78.818,280.157L79.48,280.087L80.142,280.021L80.805,279.955L81.467,279.888L82.129,279.809L82.792,279.739L83.454,279.671L84.116,279.603L84.779,279.534L85.441,279.466L86.103,279.392L86.766,279.321L87.428,279.251L88.09,279.181L88.753,279.111L89.415,279.042L90.077,278.973L90.74,278.905L91.402,278.837L92.064,278.77L92.727,278.703L93.389,278.644L94.051,278.578L94.714,278.512L95.376,278.448L96.038,278.386L96.701,278.325L97.363,278.264L98.025,278.203L98.688,278.143L99.35,278.086L100.012,278.03L100.675,277.967L101.337,277.903L101.999,277.837L102.662,277.772L103.324,277.713L103.986,277.657L104.649,277.602L105.311,277.548L105.973,277.494L106.636,277.438L107.298,277.378L107.96,277.321L108.623,277.263L109.285,277.207L109.947,277.154L110.61,277.096L111.272,277.037L111.934,276.981L112.597,276.927L113.259,276.873L113.921,276.819L114.584,276.764L115.246,276.711L115.908,276.656L116.571,276.599L117.233,276.549L117.895,276.497L118.558,276.444L119.22,276.392L119.882,276.333L120.545,276.282L121.207,276.225L121.869,276.171L122.532,276.118L123.194,276.067L123.856,276.015L124.519,275.965L125.181,275.917L125.843,275.862L126.506,275.814L127.168,275.765L127.83,275.715L128.493,275.658L129.155,275.612L129.817,275.565L130.48,275.515L131.142,275.464L131.804,275.414L132.467,275.365L133.129,275.322L133.791,275.277L134.454,275.232L135.116,275.187L135.778,275.137L136.441,275.087L137.103,275.036L137.765,274.984L138.428,274.936L139.09,274.888L139.752,274.84L140.415,274.796L141.077,274.747L141.739,274.702L142.402,274.654L143.064,274.607L143.726,274.562L144.389,274.519L145.051,274.476L145.051,265.345L144.389,265.406L143.726,265.472L143.064,265.534L142.402,265.597L141.739,265.66L141.077,265.726L140.415,265.796L139.752,265.855L139.09,265.915L138.428,265.976L137.765,266.041L137.103,266.111L136.441,266.183L135.778,266.254L135.116,266.323L134.454,266.384L133.791,266.456L133.129,266.521L132.467,266.593L131.804,266.663L131.142,266.734L130.48,266.8L129.817,266.864L129.155,266.931L128.493,267.007L127.83,267.08L127.168,267.15L126.506,267.221L125.843,267.292L125.181,267.369L124.519,267.44L123.856,267.506L123.194,267.578L122.532,267.652L121.869,267.725L121.207,267.796L120.545,267.87L119.882,267.943L119.22,268.017L118.558,268.092L117.895,268.166L117.233,268.241L116.571,268.317L115.908,268.394L115.246,268.469L114.584,268.543L113.921,268.62L113.259,268.695L112.597,268.767L111.934,268.841L111.272,268.914L110.61,268.989L109.947,269.063L109.285,269.138L108.623,269.218L107.96,269.303L107.298,269.386L106.636,269.472L105.973,269.555L105.311,269.633L104.649,269.712L103.986,269.793L103.324,269.87L102.662,269.95L101.999,270.034L101.337,270.119L100.675,270.204L100.012,270.287L99.35,270.369L98.688,270.457L98.025,270.535L97.363,270.614L96.701,270.695L96.038,270.784L95.376,270.87L94.714,270.951L94.051,271.037L93.389,271.128L92.727,271.213L92.064,271.298L91.402,271.384L90.74,271.476L90.077,271.579L89.415,271.666L88.753,271.752L88.09,271.838L87.428,271.931L86.766,272.029L86.103,272.127L85.441,272.226L84.779,272.319L84.116,272.412L83.454,272.506L82.792,272.6L82.129,272.695L81.467,272.791L80.805,272.892L80.142,272.997L79.48,273.097L78.818,273.199L78.155,273.295L77.493,273.406L76.831,273.499L76.168,273.601L75.506,273.705L74.844,273.801L74.181,273.897L73.519,273.994L72.857,274.092L72.194,274.191L71.532,274.296L70.87,274.404L70.207,274.52L69.545,274.637L68.883,274.744L68.22,274.853L67.558,274.965L66.896,275.084L66.233,275.189L65.571,275.296L64.909,275.407L64.246,275.52L63.584,275.634L62.922,275.749L62.259,275.865L61.597,275.981L60.935,276.095L60.272,276.211L59.61,276.328L58.948,276.457L58.285,276.577L57.623,276.7L56.961,276.824L56.298,276.948L55.636,277.073L54.974,277.201L54.311,277.328L53.649,277.462L52.987,277.593L52.324,277.725L51.662,277.856L51,278L50.337,278.136L49.675,278.271L49.013,278.408L48.35,278.551L47.688,278.696L47.026,278.842L46.363,278.993L45.701,279.138L45.039,279.28L44.376,279.425L43.714,279.576L43.052,279.724L42.389,279.875L41.727,280.035L41.065,280.189L40.402,280.348L39.74,280.508L39.078,280.668L38.415,280.827L37.753,280.989L37.091,281.152L36.428,281.316L35.766,281.481L35.104,281.649L34.441,281.819L33.779,281.995L33.117,282.175L32.454,282.344L31.792,282.532L31.13,282.714L30.467,282.898L29.805,283.095L29.143,283.288L28.48,283.486L27.818,283.679L27.156,283.875L26.493,284.078L25.831,284.279L25.169,284.494L24.506,284.71L23.844,284.923L23.182,285.133L22.519,285.36L21.857,285.585L21.195,285.818L20.532,286.053L19.87,286.296L19.208,286.541L18.545,286.793L17.883,287.052L17.221,287.316L16.558,287.586L15.896,287.862L15.234,288.148L14.571,288.437L13.909,288.736L13.247,289.036L12.584,289.342L11.922,289.659L11.26,289.991L10.597,290.327L9.935,290.675L9.273,291.042L8.61,291.42L7.948,291.811L7.286,292.218L6.623,292.649L5.961,293.101L5.299,293.584L4.636,294.097L3.974,294.649L3.312,295.244L2.649,295.89L1.987,296.613L1.325,297.454L0.662,298.488L0,300Z" fill="#f58518" opacity="0.5"/></g></g><path class="foreground" aria-hidden="true" d="" display="none"/></g><g transform="translate(0,0)"><path class="background" aria-hidden="true" d="M0,0h400v300h-400Z"/><g><g class="mark-area role-mark layer_2_marks" role="graphics-object" aria-roledescription="area mark container"><path aria-label="spend: 0; ci_lo: 0; ci_hi: 0; channel: fb_spend" role="graphics-symbol" aria-roledescription="area mark" d="M0,300L0.302,299.849L0.604,299.7L0.906,299.553L1.208,299.409L1.51,299.266L1.812,299.125L2.114,298.987L2.416,298.851L2.718,298.715L3.02,298.581L3.322,298.447L3.624,298.315L3.926,298.186L4.228,298.059L4.53,297.936L4.832,297.815L5.134,297.691L5.436,297.571L5.738,297.453L6.04,297.334L6.342,297.219L6.644,297.103L6.946,296.986L7.248,296.869L7.55,296.766L7.852,296.659L8.154,296.561L8.456,296.458L8.758,296.366L9.06,296.262L9.362,296.153L9.664,296.052L9.966,295.955L10.268,295.857L10.57,295.761L10.872,295.666L11.174,295.573L11.476,295.479L11.778,295.392L12.08,295.307L12.382,295.221L12.684,295.14L12.986,295.055L13.288,294.973L13.59,294.884L13.892,294.804L14.194,294.717L14.496,294.643L14.798,294.573L15.1,294.499L15.402,294.427L15.704,294.349L16.006,294.273L16.308,294.211L16.61,294.142L16.912,294.07L17.214,293.997L17.516,293.932L17.818,293.865L18.12,293.788L18.422,293.722L18.724,293.653L19.026,293.589L19.328,293.529L19.63,293.466L19.932,293.399L20.234,293.331L20.537,293.284L20.839,293.222L21.141,293.161L21.443,293.115L21.745,293.056L22.047,293.009L22.349,292.955L22.651,292.906L22.953,292.849L23.255,292.797L23.557,292.736L23.859,292.685L24.161,292.642L24.463,292.597L24.765,292.548L25.067,292.5L25.369,292.464L25.671,292.434L25.973,292.382L26.275,292.348L26.577,292.291L26.879,292.25L27.181,292.203L27.483,292.157L27.785,292.118L28.087,292.066L28.389,292.019L28.691,291.98L28.993,291.94L29.295,291.9L29.597,291.852L29.899,291.804L30.201,291.757L30.503,291.716L30.805,291.676L31.107,291.635L31.409,291.598L31.711,291.556L32.013,291.522L32.315,291.476L32.617,291.436L32.919,291.408L33.221,291.373L33.523,291.329L33.825,291.3L34.127,291.268L34.429,291.235L34.731,291.206L35.033,291.183L35.335,291.145L35.637,291.112L35.939,291.079L36.241,291.041L36.543,291.018L36.845,290.986L37.147,290.945L37.449,290.9L37.751,290.869L38.053,290.84L38.355,290.816L38.657,290.8L38.959,290.769L39.261,290.734L39.563,290.703L39.865,290.664L40.167,290.63L40.469,290.591L40.771,290.566L41.073,290.544L41.375,290.51L41.677,290.476L41.979,290.448L42.281,290.42L42.583,290.401L42.885,290.382L43.187,290.349L43.489,290.315L43.791,290.289L44.093,290.262L44.395,290.25L44.697,290.221L44.999,290.199L45.301,290.176L45.603,290.15L45.905,290.129L46.207,290.118L46.509,290.1L46.811,290.078L47.113,290.042L47.415,290.009L47.717,289.99L48.019,289.971L48.321,289.952L48.623,289.933L48.925,289.905L49.227,289.877L49.529,289.852L49.831,289.835L50.133,289.813L50.435,289.789L50.737,289.765L51.039,289.741L51.341,289.725L51.643,289.702L51.945,289.687L52.247,289.656L52.549,289.639L52.851,289.629L53.153,289.618L53.455,289.609L53.757,289.587L54.059,289.568L54.361,289.558L54.663,289.554L54.965,289.55L55.267,289.526L55.569,289.505L55.871,289.495L56.173,289.472L56.475,289.456L56.777,289.429L57.079,289.414L57.381,289.394L57.683,289.375L57.985,289.361L58.287,289.345L58.589,289.333L58.891,289.325L59.193,289.317L59.495,289.301L59.797,289.289L60.099,289.281L60.401,289.274L60.703,289.262L61.006,289.246L61.308,289.228L61.61,289.22L61.912,289.213L62.214,289.207L62.516,289.202L62.818,289.196L63.12,289.188L63.422,289.172L63.724,289.16L64.026,289.149L64.328,289.128L64.63,289.108L64.932,289.088L65.234,289.075L65.536,289.067L65.838,289.056L66.14,289.05L66.14,268.577L65.838,268.624L65.536,268.664L65.234,268.703L64.932,268.746L64.63,268.798L64.328,268.851L64.026,268.901L63.724,268.942L63.422,268.984L63.12,269.044L62.818,269.108L62.516,269.158L62.214,269.23L61.912,269.291L61.61,269.35L61.308,269.405L61.006,269.473L60.703,269.548L60.401,269.62L60.099,269.697L59.797,269.768L59.495,269.832L59.193,269.863L58.891,269.93L58.589,270.003L58.287,270.077L57.985,270.154L57.683,270.225L57.381,270.299L57.079,270.373L56.777,270.449L56.475,270.513L56.173,270.573L55.871,270.613L55.569,270.686L55.267,270.733L54.965,270.799L54.663,270.875L54.361,270.954L54.059,271.033L53.757,271.099L53.455,271.175L53.153,271.252L52.851,271.327L52.549,271.403L52.247,271.46L51.945,271.51L51.643,271.558L51.341,271.607L51.039,271.701L50.737,271.758L50.435,271.797L50.133,271.886L49.831,271.937L49.529,272.005L49.227,272.062L48.925,272.115L48.623,272.169L48.321,272.248L48.019,272.327L47.717,272.396L47.415,272.469L47.113,272.554L46.811,272.634L46.509,272.725L46.207,272.816L45.905,272.89L45.603,272.955L45.301,273.019L44.999,273.125L44.697,273.231L44.395,273.298L44.093,273.371L43.791,273.467L43.489,273.53L43.187,273.586L42.885,273.677L42.583,273.77L42.281,273.831L41.979,273.902L41.677,273.972L41.375,274.073L41.073,274.16L40.771,274.238L40.469,274.283L40.167,274.378L39.865,274.484L39.563,274.578L39.261,274.658L38.959,274.724L38.657,274.796L38.355,274.887L38.053,274.961L37.751,275.09L37.449,275.195L37.147,275.288L36.845,275.373L36.543,275.449L36.241,275.54L35.939,275.621L35.637,275.725L35.335,275.864L35.033,275.95L34.731,276.071L34.429,276.162L34.127,276.24L33.825,276.305L33.523,276.38L33.221,276.471L32.919,276.564L32.617,276.684L32.315,276.817L32.013,276.907L31.711,277.02L31.409,277.134L31.107,277.275L30.805,277.383L30.503,277.482L30.201,277.59L29.899,277.715L29.597,277.825L29.295,277.93L28.993,278.029L28.691,278.094L28.389,278.166L28.087,278.305L27.785,278.423L27.483,278.526L27.181,278.618L26.879,278.734L26.577,278.829L26.275,278.955L25.973,279.07L25.671,279.177L25.369,279.293L25.067,279.401L24.765,279.513L24.463,279.604L24.161,279.655L23.859,279.741L23.557,279.842L23.255,279.962L22.953,280.089L22.651,280.228L22.349,280.378L22.047,280.533L21.745,280.615L21.443,280.698L21.141,280.854L20.839,280.974L20.537,281.148L20.234,281.276L19.932,281.441L19.63,281.599L19.328,281.75L19.026,281.907L18.724,282.042L18.422,282.163L18.12,282.334L17.818,282.47L17.516,282.612L17.214,282.751L16.912,282.899L16.61,283.04L16.308,283.21L16.006,283.352L15.704,283.506L15.402,283.669L15.1,283.83L14.798,283.991L14.496,284.164L14.194,284.349L13.892,284.559L13.59,284.73L13.288,284.917L12.986,285.092L12.684,285.28L12.382,285.514L12.08,285.695L11.778,285.905L11.476,286.138L11.174,286.348L10.872,286.566L10.57,286.767L10.268,286.974L9.966,287.206L9.664,287.415L9.362,287.64L9.06,287.872L8.758,288.127L8.456,288.319L8.154,288.614L7.852,288.867L7.55,289.127L7.248,289.4L6.946,289.656L6.644,289.945L6.342,290.191L6.04,290.458L5.738,290.758L5.436,291.087L5.134,291.393L4.832,291.702L4.53,292.058L4.228,292.415L3.926,292.817L3.624,293.22L3.322,293.618L3.02,294.054L2.718,294.487L2.416,294.935L2.114,295.44L1.812,295.949L1.51,296.506L1.208,297.092L0.906,297.748L0.604,298.44L0.302,299.187L0,300Z" fill="#e45756" opacity="0.5"/></g></g><path class="foreground" aria-hidden="true" d="" display="none"/></g><g transform="translate(0,0)"><path class="background" aria-hidden="true" d="M0,0h400v300h-400Z"/><g><g class="mark-area role-mark layer_2_marks" role="graphics-object" aria-roledescription="area mark container"><path aria-label="spend: 0; ci_lo: 0; ci_hi: 0; channel: gift_spend" role="graphics-symbol" aria-roledescription="area mark" d="M0,300L0.04,299.981L0.079,299.963L0.119,299.946L0.159,299.929L0.199,299.912L0.238,299.896L0.278,299.88L0.318,299.865L0.358,299.85L0.397,299.836L0.437,299.821L0.477,299.807L0.517,299.794L0.556,299.781L0.596,299.768L0.636,299.755L0.676,299.742L0.715,299.73L0.755,299.719L0.795,299.708L0.835,299.696L0.874,299.685L0.914,299.674L0.954,299.663L0.993,299.653L1.033,299.642L1.073,299.632L1.113,299.621L1.152,299.611L1.192,299.601L1.232,299.592L1.272,299.582L1.311,299.573L1.351,299.563L1.391,299.554L1.431,299.546L1.47,299.538L1.51,299.529L1.55,299.521L1.59,299.514L1.629,299.507L1.669,299.499L1.709,299.491L1.749,299.483L1.788,299.476L1.828,299.469L1.868,299.462L1.907,299.455L1.947,299.448L1.987,299.441L2.027,299.433L2.066,299.425L2.106,299.418L2.146,299.411L2.186,299.404L2.225,299.398L2.265,299.391L2.305,299.384L2.345,299.377L2.384,299.372L2.424,299.366L2.464,299.361L2.504,299.354L2.543,299.348L2.583,299.342L2.623,299.337L2.663,299.331L2.702,299.326L2.742,299.322L2.782,299.317L2.821,299.312L2.861,299.307L2.901,299.303L2.941,299.298L2.98,299.293L3.02,299.288L3.06,299.283L3.1,299.278L3.139,299.273L3.179,299.268L3.219,299.263L3.259,299.259L3.298,299.254L3.338,299.25L3.378,299.245L3.418,299.24L3.457,299.237L3.497,299.233L3.537,299.228L3.577,299.225L3.616,299.22L3.656,299.215L3.696,299.211L3.735,299.207L3.775,299.203L3.815,299.2L3.855,299.195L3.894,299.191L3.934,299.188L3.974,299.183L4.014,299.179L4.053,299.176L4.093,299.171L4.133,299.168L4.173,299.164L4.212,299.16L4.252,299.156L4.292,299.152L4.332,299.149L4.371,299.145L4.411,299.142L4.451,299.138L4.491,299.135L4.53,299.131L4.57,299.128L4.61,299.125L4.649,299.121L4.689,299.117L4.729,299.114L4.769,299.11L4.808,299.107L4.848,299.104L4.888,299.1L4.928,299.097L4.967,299.094L5.007,299.091L5.047,299.088L5.087,299.085L5.126,299.082L5.166,299.079L5.206,299.075L5.246,299.072L5.285,299.069L5.325,299.067L5.365,299.064L5.405,299.062L5.444,299.06L5.484,299.058L5.524,299.056L5.563,299.054L5.603,299.051L5.643,299.048L5.683,299.047L5.722,299.045L5.762,299.042L5.802,299.04L5.842,299.038L5.881,299.037L5.921,299.035L5.961,299.033L6.001,299.031L6.04,299.03L6.08,299.028L6.12,299.026L6.16,299.024L6.199,299.021L6.239,299.019L6.279,299.017L6.319,299.015L6.358,299.013L6.398,299.011L6.438,299.01L6.477,299.007L6.517,299.005L6.557,299.004L6.597,299.001L6.636,298.999L6.676,298.997L6.716,298.994L6.756,298.992L6.795,298.991L6.835,298.989L6.875,298.987L6.915,298.986L6.954,298.985L6.994,298.985L7.034,298.982L7.074,298.98L7.113,298.977L7.153,298.975L7.193,298.974L7.233,298.973L7.272,298.971L7.312,298.968L7.352,298.966L7.391,298.965L7.431,298.962L7.471,298.961L7.511,298.959L7.55,298.956L7.59,298.954L7.63,298.953L7.67,298.951L7.709,298.95L7.749,298.949L7.789,298.948L7.829,298.946L7.868,298.945L7.908,298.943L7.948,298.941L7.988,298.939L8.027,298.937L8.067,298.935L8.107,298.934L8.147,298.932L8.186,298.93L8.226,298.929L8.266,298.927L8.305,298.926L8.345,298.925L8.385,298.923L8.425,298.921L8.464,298.92L8.504,298.918L8.544,298.916L8.584,298.915L8.623,298.913L8.663,298.912L8.703,298.911L8.703,295.611L8.663,295.619L8.623,295.627L8.584,295.636L8.544,295.644L8.504,295.652L8.464,295.662L8.425,295.671L8.385,295.679L8.345,295.687L8.305,295.694L8.266,295.705L8.226,295.713L8.186,295.721L8.147,295.729L8.107,295.736L8.067,295.741L8.027,295.746L7.988,295.752L7.948,295.759L7.908,295.765L7.868,295.772L7.829,295.778L7.789,295.784L7.749,295.791L7.709,295.799L7.67,295.806L7.63,295.813L7.59,295.821L7.55,295.828L7.511,295.836L7.471,295.843L7.431,295.851L7.391,295.86L7.352,295.869L7.312,295.876L7.272,295.884L7.233,295.889L7.193,295.899L7.153,295.905L7.113,295.909L7.074,295.915L7.034,295.922L6.994,295.932L6.954,295.942L6.915,295.952L6.875,295.961L6.835,295.97L6.795,295.978L6.756,295.987L6.716,295.995L6.676,296.004L6.636,296.013L6.597,296.025L6.557,296.037L6.517,296.047L6.477,296.056L6.438,296.067L6.398,296.076L6.358,296.085L6.319,296.096L6.279,296.106L6.239,296.117L6.199,296.127L6.16,296.134L6.12,296.141L6.08,296.151L6.04,296.163L6.001,296.175L5.961,296.183L5.921,296.19L5.881,296.203L5.842,296.214L5.802,296.223L5.762,296.236L5.722,296.248L5.683,296.257L5.643,296.265L5.603,296.273L5.563,296.281L5.524,296.289L5.484,296.301L5.444,296.315L5.405,296.332L5.365,296.345L5.325,296.352L5.285,296.358L5.246,296.368L5.206,296.381L5.166,296.395L5.126,296.409L5.087,296.422L5.047,296.436L5.007,296.448L4.967,296.463L4.928,296.477L4.888,296.489L4.848,296.504L4.808,296.519L4.769,296.534L4.729,296.549L4.689,296.564L4.649,296.579L4.61,296.594L4.57,296.605L4.53,296.62L4.491,296.631L4.451,296.647L4.411,296.658L4.371,296.672L4.332,296.684L4.292,296.699L4.252,296.715L4.212,296.726L4.173,296.74L4.133,296.757L4.093,296.774L4.053,296.79L4.014,296.805L3.974,296.825L3.934,296.842L3.894,296.856L3.855,296.875L3.815,296.886L3.775,296.9L3.735,296.911L3.696,296.93L3.656,296.945L3.616,296.958L3.577,296.97L3.537,296.985L3.497,296.995L3.457,297.011L3.418,297.026L3.378,297.042L3.338,297.06L3.298,297.073L3.259,297.088L3.219,297.103L3.179,297.122L3.139,297.136L3.1,297.149L3.06,297.166L3.02,297.183L2.98,297.201L2.941,297.218L2.901,297.241L2.861,297.26L2.821,297.276L2.782,297.296L2.742,297.318L2.702,297.34L2.663,297.361L2.623,297.38L2.583,297.399L2.543,297.422L2.504,297.442L2.464,297.464L2.424,297.485L2.384,297.501L2.345,297.519L2.305,297.543L2.265,297.567L2.225,297.583L2.186,297.61L2.146,297.631L2.106,297.654L2.066,297.676L2.027,297.7L1.987,297.723L1.947,297.739L1.907,297.76L1.868,297.782L1.828,297.809L1.788,297.831L1.749,297.856L1.709,297.886L1.669,297.911L1.629,297.938L1.59,297.967L1.55,297.997L1.51,298.027L1.47,298.061L1.431,298.089L1.391,298.116L1.351,298.15L1.311,298.184L1.272,298.213L1.232,298.253L1.192,298.29L1.152,298.32L1.113,298.357L1.073,298.386L1.033,298.42L0.993,298.453L0.954,298.493L0.914,298.53L0.874,298.567L0.835,298.609L0.795,298.65L0.755,298.699L0.715,298.744L0.676,298.793L0.636,298.841L0.596,298.886L0.556,298.934L0.517,298.987L0.477,299.043L0.437,299.096L0.397,299.155L0.358,299.214L0.318,299.277L0.278,299.339L0.238,299.418L0.199,299.496L0.159,299.575L0.119,299.665L0.079,299.761L0.04,299.872L0,300Z" fill="#72b7b2" opacity="0.5"/></g></g><path class="foreground" aria-hidden="true" d="" display="none"/></g><g transform="translate(0,0)"><path class="background" aria-hidden="true" d="M0,0h400v300h-400Z"/><g><g class="mark-area role-mark layer_2_marks" role="graphics-object" aria-roledescription="area mark container"><path aria-label="spend: 0; ci_lo: 0; ci_hi: 0; channel: googleAds_spend" role="graphics-symbol" aria-roledescription="area mark" d="M0,300L0.697,299.56L1.395,299.126L2.092,298.696L2.789,298.271L3.487,297.852L4.184,297.44L4.881,297.033L5.579,296.629L6.276,296.231L6.973,295.832L7.671,295.439L8.368,295.052L9.065,294.673L9.763,294.301L10.46,293.931L11.157,293.563L11.855,293.2L12.552,292.848L13.249,292.493L13.947,292.137L14.644,291.784L15.341,291.444L16.038,291.101L16.736,290.769L17.433,290.431L18.13,290.108L18.828,289.773L19.525,289.441L20.222,289.133L20.92,288.826L21.617,288.51L22.314,288.201L23.012,287.892L23.709,287.582L24.406,287.285L25.104,286.992L25.801,286.705L26.498,286.415L27.196,286.13L27.893,285.846L28.59,285.564L29.288,285.29L29.985,285.02L30.682,284.736L31.38,284.487L32.077,284.222L32.774,283.964L33.472,283.715L34.169,283.49L34.866,283.227L35.564,282.993L36.261,282.749L36.958,282.526L37.656,282.298L38.353,282.084L39.05,281.852L39.748,281.62L40.445,281.371L41.142,281.122L41.84,280.91L42.537,280.672L43.234,280.457L43.932,280.245L44.629,280.031L45.326,279.799L46.023,279.569L46.721,279.339L47.418,279.114L48.115,278.903L48.813,278.714L49.51,278.507L50.207,278.315L50.905,278.099L51.602,277.89L52.299,277.676L52.997,277.507L53.694,277.318L54.391,277.117L55.089,276.925L55.786,276.732L56.483,276.547L57.181,276.373L57.878,276.185L58.575,276.021L59.273,275.826L59.97,275.631L60.667,275.468L61.365,275.291L62.062,275.118L62.759,274.952L63.457,274.766L64.154,274.601L64.851,274.415L65.549,274.249L66.246,274.081L66.943,273.921L67.641,273.754L68.338,273.58L69.035,273.41L69.733,273.248L70.43,273.12L71.127,272.951L71.825,272.792L72.522,272.627L73.219,272.47L73.917,272.314L74.614,272.159L75.311,272.005L76.008,271.861L76.706,271.703L77.403,271.557L78.1,271.426L78.798,271.298L79.495,271.156L80.192,271.025L80.89,270.883L81.587,270.749L82.284,270.626L82.982,270.491L83.679,270.362L84.376,270.216L85.074,270.094L85.771,269.961L86.468,269.833L87.166,269.701L87.863,269.58L88.56,269.457L89.258,269.337L89.955,269.256L90.652,269.155L91.35,269L92.047,268.862L92.744,268.744L93.442,268.604L94.139,268.487L94.836,268.385L95.534,268.281L96.231,268.178L96.928,268.075L97.626,267.959L98.323,267.83L99.02,267.708L99.718,267.621L100.415,267.515L101.112,267.407L101.81,267.3L102.507,267.196L103.204,267.092L103.902,266.996L104.599,266.884L105.296,266.781L105.993,266.692L106.691,266.588L107.388,266.507L108.085,266.402L108.783,266.307L109.48,266.218L110.177,266.103L110.875,265.993L111.572,265.892L112.269,265.791L112.967,265.693L113.664,265.599L114.361,265.494L115.059,265.398L115.756,265.306L116.453,265.223L117.151,265.112L117.848,265.042L118.545,264.947L119.243,264.852L119.94,264.744L120.637,264.64L121.335,264.543L122.032,264.451L122.729,264.36L123.427,264.269L124.124,264.179L124.821,264.128L125.519,264.039L126.216,263.941L126.913,263.847L127.611,263.752L128.308,263.657L129.005,263.563L129.703,263.496L130.4,263.434L131.097,263.35L131.795,263.279L132.492,263.219L133.189,263.156L133.886,263.089L134.584,263.017L135.281,262.939L135.978,262.862L136.676,262.787L137.373,262.723L138.07,262.654L138.768,262.572L139.465,262.49L140.162,262.409L140.86,262.331L141.557,262.257L142.254,262.183L142.952,262.109L143.649,262.031L144.346,261.963L145.044,261.891L145.741,261.811L146.438,261.739L147.136,261.671L147.833,261.604L148.53,261.533L149.228,261.467L149.925,261.388L150.622,261.327L151.32,261.261L152.017,261.193L152.714,261.126L152.714,183.737L152.017,183.988L151.32,184.234L150.622,184.492L149.925,184.747L149.228,185.001L148.53,185.255L147.833,185.512L147.136,185.769L146.438,186.028L145.741,186.287L145.044,186.55L144.346,186.784L143.649,187.042L142.952,187.327L142.254,187.612L141.557,187.881L140.86,188.182L140.162,188.545L139.465,188.833L138.768,189.06L138.07,189.357L137.373,189.684L136.676,190.017L135.978,190.351L135.281,190.687L134.584,190.981L133.886,191.241L133.189,191.589L132.492,191.94L131.795,192.233L131.097,192.524L130.4,192.816L129.703,193.109L129.005,193.406L128.308,193.707L127.611,194.028L126.913,194.311L126.216,194.617L125.519,194.945L124.821,195.284L124.124,195.585L123.427,195.917L122.729,196.222L122.032,196.501L121.335,196.782L120.637,197.083L119.94,197.416L119.243,197.754L118.545,198.094L117.848,198.387L117.151,198.683L116.453,199.022L115.756,199.347L115.059,199.663L114.361,199.993L113.664,200.325L112.967,200.658L112.269,200.993L111.572,201.357L110.875,201.729L110.177,202.034L109.48,202.392L108.783,202.703L108.085,203.046L107.388,203.396L106.691,203.729L105.993,204.102L105.296,204.46L104.599,204.834L103.902,205.21L103.204,205.588L102.507,205.967L101.81,206.354L101.112,206.737L100.415,207.09L99.718,207.421L99.02,207.799L98.323,208.211L97.626,208.626L96.928,209.043L96.231,209.434L95.534,209.754L94.836,210.049L94.139,210.421L93.442,210.839L92.744,211.255L92.047,211.66L91.35,212.081L90.652,212.451L89.955,212.833L89.258,213.273L88.56,213.716L87.863,214.162L87.166,214.61L86.468,215.061L85.771,215.446L85.074,215.838L84.376,216.279L83.679,216.702L82.982,217.087L82.284,217.512L81.587,217.996L80.89,218.482L80.192,218.855L79.495,219.28L78.798,219.782L78.1,220.189L77.403,220.634L76.706,221.029L76.008,221.426L75.311,221.879L74.614,222.369L73.917,222.904L73.219,223.442L72.522,223.868L71.825,224.326L71.127,224.86L70.43,225.399L69.733,225.84L69.035,226.252L68.338,226.786L67.641,227.226L66.943,227.686L66.246,228.2L65.549,228.718L64.851,229.237L64.154,229.775L63.457,230.289L62.759,230.819L62.062,231.35L61.365,231.886L60.667,232.412L59.97,232.825L59.273,233.318L58.575,233.898L57.878,234.362L57.181,234.788L56.483,235.305L55.786,235.847L55.089,236.394L54.391,236.91L53.694,237.455L52.997,237.906L52.299,238.519L51.602,239.031L50.905,239.602L50.207,240.203L49.51,240.808L48.813,241.418L48.115,241.993L47.418,242.596L46.721,243.196L46.023,243.794L45.326,244.4L44.629,245.009L43.932,245.589L43.234,246.181L42.537,246.806L41.84,247.46L41.142,248.098L40.445,248.704L39.748,249.38L39.05,250.055L38.353,250.693L37.656,251.332L36.958,252.047L36.261,252.718L35.564,253.445L34.866,254.112L34.169,254.785L33.472,255.467L32.774,256.172L32.077,256.92L31.38,257.613L30.682,258.374L29.985,259.139L29.288,259.88L28.59,260.631L27.893,261.404L27.196,262.158L26.498,262.989L25.801,263.718L25.104,264.418L24.406,265.176L23.709,265.964L23.012,266.741L22.314,267.52L21.617,268.368L20.92,269.104L20.222,269.959L19.525,270.869L18.828,271.727L18.13,272.631L17.433,273.53L16.736,274.415L16.038,275.312L15.341,276.22L14.644,277.179L13.947,278.13L13.249,279.079L12.552,280.021L11.855,280.981L11.157,281.954L10.46,282.982L9.763,283.998L9.065,285.046L8.368,286.08L7.671,287.152L6.973,288.218L6.276,289.318L5.579,290.431L4.881,291.54L4.184,292.678L3.487,293.851L2.789,295.04L2.092,296.242L1.395,297.472L0.697,298.725L0,300Z" fill="#54a24b" opacity="0.5"/></g></g><path class="foreground" aria-hidden="true" d="" display="none"/></g><g transform="translate(0,0)"><path class="background" aria-hidden="true" d="M0,0h400v300h-400Z"/><g><g class="mark-area role-mark layer_2_marks" role="graphics-object" aria-roledescription="area mark container"><path aria-label="spend: 0; ci_lo: 0; ci_hi: 0; channel: linkedin_spend" role="graphics-symbol" aria-roledescription="area mark" d="M0,300L1.708,298.759L3.415,297.535L5.123,296.321L6.83,295.12L8.538,293.936L10.245,292.76L11.953,291.624L13.66,290.475L15.368,289.358L17.075,288.25L18.783,287.155L20.49,286.071L22.198,285.008L23.905,283.932L25.613,282.892L27.32,281.847L29.028,280.807L30.735,279.808L32.443,278.78L34.15,277.765L35.858,276.748L37.566,275.749L39.273,274.802L40.981,273.853L42.688,272.921L44.396,272.002L46.103,271.101L47.811,270.254L49.518,269.343L51.226,268.418L52.933,267.493L54.641,266.558L56.348,265.634L58.056,264.759L59.763,263.921L61.471,263.084L63.178,262.265L64.886,261.5L66.593,260.661L68.301,259.825L70.008,258.996L71.716,258.176L73.424,257.371L75.131,256.563L76.839,255.761L78.546,254.963L80.254,254.176L81.961,253.424L83.669,252.758L85.376,252.102L87.084,251.429L88.791,250.698L90.499,249.987L92.206,249.273L93.914,248.582L95.621,247.837L97.329,247.154L99.036,246.462L100.744,245.774L102.451,245.087L104.159,244.47L105.866,243.842L107.574,243.133L109.282,242.484L110.989,241.787L112.697,241.178L114.404,240.488L116.112,239.884L117.819,239.264L119.527,238.676L121.234,238.043L122.942,237.429L124.649,236.853L126.357,236.284L128.064,235.717L129.772,235.085L131.479,234.535L133.187,234.041L134.894,233.526L136.602,232.966L138.309,232.417L140.017,231.848L141.724,231.262L143.432,230.68L145.14,230.102L146.847,229.588L148.555,229.041L150.262,228.53L151.97,228L153.677,227.47L155.385,226.966L157.092,226.448L158.8,225.966L160.507,225.462L162.215,225.017L163.922,224.549L165.63,224.124L167.337,223.716L169.045,223.294L170.752,222.788L172.46,222.454L174.167,222.004L175.875,221.607L177.582,221.23L179.29,220.71L180.998,220.242L182.705,219.85L184.413,219.32L186.12,218.931L187.828,218.535L189.535,218.034L191.243,217.648L192.95,217.372L194.658,216.967L196.365,216.544L198.073,216.124L199.78,215.728L201.488,215.391L203.195,215.056L204.903,214.723L206.61,214.309L208.318,213.961L210.025,213.51L211.733,213.058L213.44,212.662L215.148,212.322L216.856,211.936L218.563,211.594L220.271,211.259L221.978,210.927L223.686,210.596L225.393,210.22L227.101,209.889L228.808,209.558L230.516,209.238L232.223,208.93L233.931,208.587L235.638,208.205L237.346,207.891L239.053,207.55L240.761,207.208L242.468,206.907L244.176,206.672L245.883,206.311L247.591,205.9L249.299,205.601L251.006,205.241L252.714,204.88L254.421,204.559L256.129,204.25L257.836,204.115L259.544,203.817L261.251,203.482L262.959,203.148L264.666,202.858L266.374,202.601L268.081,202.266L269.789,201.969L271.496,201.633L273.204,201.326L274.911,201.045L276.619,200.768L278.326,200.489L280.034,200.167L281.741,199.845L283.449,199.545L285.157,199.248L286.864,198.926L288.572,198.614L290.279,198.321L291.987,198.087L293.694,197.853L295.402,197.565L297.109,197.279L298.817,196.994L300.524,196.708L302.232,196.533L303.939,196.283L305.647,196.059L307.354,195.829L309.062,195.556L310.769,195.343L312.477,195.053L314.184,194.829L315.892,194.608L317.599,194.393L319.307,194.226L321.015,194.01L322.722,193.742L324.43,193.477L326.137,193.193L327.845,192.909L329.552,192.628L331.26,192.347L332.967,192.083L334.675,191.895L336.382,191.632L338.09,191.403L339.797,191.209L341.505,191.061L343.212,190.901L344.92,190.656L346.627,190.493L348.335,190.269L350.042,190.019L351.75,189.834L353.457,189.616L355.165,189.442L356.873,189.229L358.58,189.048L360.288,188.88L361.995,188.71L363.703,188.487L365.41,188.294L367.118,188.084L368.825,187.871L370.533,187.682L372.24,187.493L373.948,187.288L373.948,27.953L372.24,28.491L370.533,29.033L368.825,29.476L367.118,30.01L365.41,30.533L363.703,31.019L361.995,31.519L360.288,32.023L358.58,32.53L356.873,33.025L355.165,33.525L353.457,34.059L351.75,34.57L350.042,35.015L348.335,35.485L346.627,36.101L344.92,36.674L343.212,37.205L341.505,37.735L339.797,38.271L338.09,38.831L336.382,39.392L334.675,39.991L332.967,40.479L331.26,41.168L329.552,41.702L327.845,42.287L326.137,42.861L324.43,43.477L322.722,44.148L321.015,44.769L319.307,45.181L317.599,45.656L315.892,46.224L314.184,46.782L312.477,47.431L310.769,48.039L309.062,48.718L307.354,49.387L305.647,50.052L303.939,50.723L302.232,51.409L300.524,52.143L298.817,52.837L297.109,53.519L295.402,54.204L293.694,54.893L291.987,55.526L290.279,56.123L288.572,56.768L286.864,57.369L285.157,58.013L283.449,58.515L281.741,59.119L280.034,59.842L278.326,60.57L276.619,61.131L274.911,61.676L273.204,62.234L271.496,63.015L269.789,63.957L268.081,64.72L266.374,65.388L264.666,66.057L262.959,66.997L261.251,67.827L259.544,68.771L257.836,69.606L256.129,70.45L254.421,71.032L252.714,71.743L251.006,72.46L249.299,73.182L247.591,73.909L245.883,74.646L244.176,75.398L242.468,76.032L240.761,76.872L239.053,77.819L237.346,78.493L235.638,79.379L233.931,80.075L232.223,80.786L230.516,81.571L228.808,82.351L227.101,83.215L225.393,84.143L223.686,85.059L221.978,85.982L220.271,86.911L218.563,87.846L216.856,88.764L215.148,89.6L213.44,90.422L211.733,91.245L210.025,92.076L208.318,93.108L206.61,93.924L204.903,94.608L203.195,95.464L201.488,96.325L199.78,97.2L198.073,98.156L196.365,99.065L194.658,100.162L192.95,101.138L191.243,101.771L189.535,102.767L187.828,103.845L186.12,104.933L184.413,106.014L182.705,106.811L180.998,107.841L179.29,108.824L177.582,109.878L175.875,110.953L174.167,111.991L172.46,113.018L170.752,114.128L169.045,115.003L167.337,116.222L165.63,117.147L163.922,118.254L162.215,119.399L160.507,120.514L158.8,121.657L157.092,122.832L155.385,123.972L153.677,125.14L151.97,126.326L150.262,127.521L148.555,128.725L146.847,129.943L145.14,131.147L143.432,132.409L141.724,133.528L140.017,134.745L138.309,136.098L136.602,137.336L134.894,138.55L133.187,139.747L131.479,140.957L129.772,142.282L128.064,143.622L126.357,145.024L124.649,146.308L122.942,147.562L121.234,148.883L119.527,150.14L117.819,151.447L116.112,152.791L114.404,154.165L112.697,155.448L110.989,156.743L109.282,158.218L107.574,159.689L105.866,161.174L104.159,162.636L102.451,164.171L100.744,165.652L99.036,167.133L97.329,168.741L95.621,170.057L93.914,171.537L92.206,173.1L90.499,174.698L88.791,176.232L87.084,177.888L85.376,179.546L83.669,181.167L81.961,182.831L80.254,184.511L78.546,186.133L76.839,187.824L75.131,189.537L73.424,191.323L71.716,193.05L70.008,194.818L68.301,196.653L66.593,198.613L64.886,200.404L63.178,202.171L61.471,204.117L59.763,206.233L58.056,208.132L56.348,210.139L54.641,212.123L52.933,214.175L51.226,216.377L49.518,218.509L47.811,220.62L46.103,222.838L44.396,225.157L42.688,227.44L40.981,229.611L39.273,232.021L37.566,234.481L35.858,237.072L34.15,239.508L32.443,241.805L30.735,244.006L29.028,246.674L27.32,249.405L25.613,251.98L23.905,254.727L22.198,257.483L20.49,260.366L18.783,263.243L17.075,266.275L15.368,269.36L13.66,272.455L11.953,275.607L10.245,278.886L8.538,282.19L6.83,285.615L5.123,289.082L3.415,292.65L1.708,296.269L0,300Z" fill="#eeca3b" opacity="0.5"/></g></g><path class="foreground" aria-hidden="true" d="" display="none"/></g></g><g class="mark-group role-legend" role="graphics-symbol" aria-roledescription="legend" aria-label="Symbol legend titled 'channel' for fill color and stroke color with 6 values: direct_lessbulk_spend, event_spend, fb_spend, gift_spend, googleAds_spend, linkedin_spend"><g transform="translate(418,0)"><path class="background" aria-hidden="true" d="M0,0h115v109h-115Z" pointer-events="none"/><g><g class="mark-group role-legend-entry"><g transform="translate(0,16)"><path class="background" aria-hidden="true" d="M0,0h0v0h0Z" pointer-events="none"/><g><g class="mark-group role-scope" role="graphics-object" aria-roledescription="group mark container"><g transform="translate(0,0)"><path class="background" aria-hidden="true" d="M0,0h114.9501953125v12.5h-114.9501953125Z" pointer-events="none" opacity="1"/><g><g class="mark-symbol role-legend-symbol" pointer-events="none"><path transform="translate(6,6)" d="M5,0A5,5,0,1,1,-5,0A5,5,0,1,1,5,0" fill="#4c78a8" stroke="#4c78a8" stroke-width="1.5" opacity="1"/></g><g class="mark-text role-legend-label" pointer-events="none"><text text-anchor="start" transform="translate(16,9)" font-family="sans-serif" font-size="10px" fill="#000" opacity="1">direct_lessbulk_spend</text></g></g><path class="foreground" aria-hidden="true" d="" pointer-events="none" display="none"/></g><g transform="translate(0,16)"><path class="background" aria-hidden="true" d="M0,0h114.9501953125v12.5h-114.9501953125Z" pointer-events="none" opacity="1"/><g><g class="mark-symbol role-legend-symbol" pointer-events="none"><path transform="translate(6,6)" d="M5,0A5,5,0,1,1,-5,0A5,5,0,1,1,5,0" fill="#f58518" stroke="#f58518" stroke-width="1.5" opacity="1"/></g><g class="mark-text role-legend-label" pointer-events="none"><text text-anchor="start" transform="translate(16,9)" font-family="sans-serif" font-size="10px" fill="#000" opacity="1">event_spend</text></g></g><path class="foreground" aria-hidden="true" d="" pointer-events="none" display="none"/></g><g transform="translate(0,32)"><path class="background" aria-hidden="true" d="M0,0h114.9501953125v12.5h-114.9501953125Z" pointer-events="none" opacity="1"/><g><g class="mark-symbol role-legend-symbol" pointer-events="none"><path transform="translate(6,6)" d="M5,0A5,5,0,1,1,-5,0A5,5,0,1,1,5,0" fill="#e45756" stroke="#e45756" stroke-width="1.5" opacity="1"/></g><g class="mark-text role-legend-label" pointer-events="none"><text text-anchor="start" transform="translate(16,9)" font-family="sans-serif" font-size="10px" fill="#000" opacity="1">fb_spend</text></g></g><path class="foreground" aria-hidden="true" d="" pointer-events="none" display="none"/></g><g transform="translate(0,48)"><path class="background" aria-hidden="true" d="M0,0h114.9501953125v12.5h-114.9501953125Z" pointer-events="none" opacity="1"/><g><g class="mark-symbol role-legend-symbol" pointer-events="none"><path transform="translate(6,6)" d="M5,0A5,5,0,1,1,-5,0A5,5,0,1,1,5,0" fill="#72b7b2" stroke="#72b7b2" stroke-width="1.5" opacity="1"/></g><g class="mark-text role-legend-label" pointer-events="none"><text text-anchor="start" transform="translate(16,9)" font-family="sans-serif" font-size="10px" fill="#000" opacity="1">gift_spend</text></g></g><path class="foreground" aria-hidden="true" d="" pointer-events="none" display="none"/></g><g transform="translate(0,64)"><path class="background" aria-hidden="true" d="M0,0h114.9501953125v12.5h-114.9501953125Z" pointer-events="none" opacity="1"/><g><g class="mark-symbol role-legend-symbol" pointer-events="none"><path transform="translate(6,6)" d="M5,0A5,5,0,1,1,-5,0A5,5,0,1,1,5,0" fill="#54a24b" stroke="#54a24b" stroke-width="1.5" opacity="1"/></g><g class="mark-text role-legend-label" pointer-events="none"><text text-anchor="start" transform="translate(16,9)" font-family="sans-serif" font-size="10px" fill="#000" opacity="1">googleAds_spend</text></g></g><path class="foreground" aria-hidden="true" d="" pointer-events="none" display="none"/></g><g transform="translate(0,80)"><path class="background" aria-hidden="true" d="M0,0h114.9501953125v12.5h-114.9501953125Z" pointer-events="none" opacity="1"/><g><g class="mark-symbol role-legend-symbol" pointer-events="none"><path transform="translate(6,6)" d="M5,0A5,5,0,1,1,-5,0A5,5,0,1,1,5,0" fill="#eeca3b" stroke="#eeca3b" stroke-width="1.5" opacity="1"/></g><g class="mark-text role-legend-label" pointer-events="none"><text text-anchor="start" transform="translate(16,9)" font-family="sans-serif" font-size="10px" fill="#000" opacity="1">linkedin_spend</text></g></g><path class="foreground" aria-hidden="true" d="" pointer-events="none" display="none"/></g></g></g><path class="foreground" aria-hidden="true" d="" pointer-events="none" display="none"/></g></g><g class="mark-text role-legend-title" pointer-events="none"><text text-anchor="start" transform="translate(0,9)" font-family="sans-serif" font-size="11px" font-weight="bold" fill="#000" opacity="1">channel</text></g></g><path class="foreground" aria-hidden="true" d="" pointer-events="none" display="none"/></g></g><g class="mark-group role-legend" role="graphics-symbol" aria-roledescription="legend" aria-label="Symbol legend for strokeDash with 2 values: Below current spend, Above current spend"><g transform="translate(418,117)"><path class="background" aria-hidden="true" d="M0,0h109v24h-109Z" pointer-events="none"/><g><g class="mark-group role-legend-entry"><g transform="translate(0,0)"><path class="background" aria-hidden="true" d="M0,0h0v0h0Z" pointer-events="none"/><g><g class="mark-group role-scope" role="graphics-object" aria-roledescription="group mark container"><g transform="translate(0,0)"><path class="background" aria-hidden="true" d="M0,0h108.2802734375v11h-108.2802734375Z" pointer-events="none" opacity="1"/><g><g class="mark-symbol role-legend-symbol" pointer-events="none"><path transform="translate(6,6)" d="M-5,0L5,0" stroke="#888" stroke-width="1.5" stroke-dasharray="1,0" opacity="1"/></g><g class="mark-text role-legend-label" pointer-events="none"><text text-anchor="start" transform="translate(16,9)" font-family="sans-serif" font-size="10px" fill="#000" opacity="1">Below current spend</text></g></g><path class="foreground" aria-hidden="true" d="" pointer-events="none" display="none"/></g><g transform="translate(0,13)"><path class="background" aria-hidden="true" d="M0,0h108.2802734375v11h-108.2802734375Z" pointer-events="none" opacity="1"/><g><g class="mark-symbol role-legend-symbol" pointer-events="none"><path transform="translate(6,6)" d="M-5,0L5,0" stroke="#888" stroke-width="1.5" stroke-dasharray="4,2" opacity="1"/></g><g class="mark-text role-legend-label" pointer-events="none"><text text-anchor="start" transform="translate(16,9)" font-family="sans-serif" font-size="10px" fill="#000" opacity="1">Above current spend</text></g></g><path class="foreground" aria-hidden="true" d="" pointer-events="none" display="none"/></g></g></g><path class="foreground" aria-hidden="true" d="" pointer-events="none" display="none"/></g></g></g><path class="foreground" aria-hidden="true" d="" pointer-events="none" display="none"/></g></g><g class="mark-group role-legend" role="graphics-symbol" aria-roledescription="legend" aria-label="Symbol legend for shape with 1 value: Current spend"><g transform="translate(418,149)"><path class="background" aria-hidden="true" d="M0,0h80v13h-80Z" pointer-events="none"/><g><g class="mark-group role-legend-entry"><g transform="translate(0,0)"><path class="background" aria-hidden="true" d="M0,0h0v0h0Z" pointer-events="none"/><g><g class="mark-group role-scope" role="graphics-object" aria-roledescription="group mark container"><g transform="translate(0,0)"><path class="background" aria-hidden="true" d="M0,0h79.369140625v12.5h-79.369140625Z" pointer-events="none" opacity="1"/><g><g class="mark-symbol role-legend-symbol" pointer-events="none"><path transform="translate(6,6)" d="M5,0A5,5,0,1,1,-5,0A5,5,0,1,1,5,0" fill="black" fill-opacity="1" stroke-width="1.5" opacity="1"/></g><g class="mark-text role-legend-label" pointer-events="none"><text text-anchor="start" transform="translate(16,9)" font-family="sans-serif" font-size="10px" fill="#000" opacity="1">Current spend</text></g></g><path class="foreground" aria-hidden="true" d="" pointer-events="none" display="none"/></g></g></g><path class="foreground" aria-hidden="true" d="" pointer-events="none" display="none"/></g></g></g><path class="foreground" aria-hidden="true" d="" pointer-events="none" display="none"/></g></g><g class="mark-group role-title"><g transform="translate(-34.953125,-61)"><path class="background" aria-hidden="true" d="M0,0h0v0h0Z" pointer-events="none"/><g><g class="mark-text role-title-text" role="graphics-symbol" aria-roledescription="title" aria-label="Title text 'Response curves by marketing channel (top 7)'" pointer-events="none"><text text-anchor="start" transform="translate(0,14)" font-family="Google Sans Display" font-size="18px" font-weight="normal" fill="#3C4043" opacity="1">Response curves by marketing channel (top 7)</text></g></g><path class="foreground" aria-hidden="true" d="" pointer-events="none" display="none"/></g></g></g><path class="foreground" aria-hidden="true" d="" display="none"/></g></g></g></svg>